<svg width="48" height="48" viewBox="0 0 48 48" fill="none" xmlns="http://www.w3.org/2000/svg">
<path d="M48 24C48 30.5761 45.3552 36.5339 41.0223 40.8618C38.2087 43.7283 34.6073 45.8642 30.612 47.0445C28.4736 47.6627 26.279 48 23.9719 48C21.8898 48 19.9203 47.719 18.007 47.2693C14.4056 46.3138 11.0856 44.5714 8.32825 42.2108C3.2075 37.8267 0 31.3068 0 24.0562C0 10.7354 10.748 0 24.0281 0C37.3083 0 48 10.7354 48 24Z" fill="#F2F2F2"/>
<path d="M10 29.1077C10 26.088 12.4479 23.64 15.4676 23.64H33.5324C36.5521 23.64 39 26.088 39 29.1077H10Z" fill="#100D40"/>
<path d="M30.5231 24.3597C30.5231 26.2668 26.9942 27.8129 22.6411 27.8129C18.2879 27.8129 14.759 26.2668 14.759 24.3597C14.759 22.4525 18.2879 18.6042 22.6411 18.6042C26.9942 18.6042 30.5231 22.4525 30.5231 24.3597Z" fill="#100D40"/>
<path d="M10 30.1152H39C39 31.7045 37.7116 32.9929 36.1223 32.9929H12.8777C11.2884 32.9929 10 31.7045 10 30.1152Z" fill="#100D40"/>
<circle cx="32.8335" cy="31.3129" r="2.9" fill="white" stroke="#100D40" stroke-width="1.2"/>
<circle cx="16.5" cy="31.5" r="2.9" fill="white" stroke="#100D40" stroke-width="1.2"/>
<rect x="11.9333" y="15.439" width="0.892308" height="8.05758" fill="#100D40"/>
<ellipse cx="12.3798" cy="24.2158" rx="1.48718" ry="1.43885" fill="#100D40"/>
<ellipse cx="12.3795" cy="15.4389" rx="1.48718" ry="1.43885" fill="#100D40"/>
<path d="M22.9385 23.9137C22.9385 22.8091 23.8339 21.9137 24.9385 21.9137H27.0119C27.9654 21.9137 28.7385 22.6867 28.7385 23.6403C28.7385 24.5939 27.9654 25.3669 27.0119 25.3669H22.9385V23.9137Z" fill="white"/>
<path d="M22.3435 23.847C22.3435 22.7793 21.4779 21.9137 20.4102 21.9137H18.8457C17.5742 21.9137 16.5435 22.9444 16.5435 24.2159C16.5435 24.8516 17.0589 25.3669 17.6946 25.3669H22.3435V23.847Z" fill="white"/>
<ellipse cx="0.962741" cy="1.30056" rx="0.962741" ry="1.30056" transform="matrix(0.93827 -0.345903 0.366445 0.93044 35.6123 25.2092)" fill="white"/>
</svg>
