<svg width="179" height="181" viewBox="0 0 179 181" fill="none" xmlns="http://www.w3.org/2000/svg">
<circle cx="3.62838" cy="74.9863" r="3.62838" fill="#AA80F5"/>
<circle cx="21.7702" cy="166.905" r="3.62838" fill="#C9BBF8"/>
<circle cx="163.277" cy="3.62838" r="3.62838" fill="#9377F0"/>
<circle cx="25.3986" cy="18.1418" r="3.62838" fill="#C9BBF8"/>
<circle cx="175.372" cy="87.081" r="3.62838" fill="#8673EF"/>
<path d="M37.3594 61.1113C37.3594 48.2727 47.7671 37.865 60.6057 37.865C73.4442 37.865 83.852 48.2727 83.852 61.1113V110.306H60.6057H37.3594V61.1113Z" stroke="#B3A0F5" stroke-width="8"/>
<circle cx="61.0381" cy="101.332" r="38.0583" fill="#100D40"/>
<circle cx="61.0379" cy="101.332" r="26.8138" fill="#C9BBF8"/>
<circle cx="61.2738" cy="97.243" r="7.15559" fill="white"/>
<rect x="57.1851" y="92.1318" width="8.17782" height="20.4446" rx="4.08891" fill="white"/>
<rect x="76.0398" y="11.6758" width="77.7174" height="148.392" rx="6" fill="white" stroke="#262626" stroke-width="4"/>
<path d="M74.0398 39.4915V47.2215" stroke="#262626" stroke-width="4" stroke-linecap="round"/>
<path d="M74.0398 62.6816V75.9331" stroke="#262626" stroke-width="4" stroke-linecap="round"/>
<path d="M121.524 18.5103L108.273 18.5103" stroke="#999999" stroke-linecap="round"/>
<rect x="93.4023" y="39.4326" width="3.30735" height="9.28417" rx="1.65368" fill="#FFBC42"/>
<rect width="4.13569" height="15.4191" rx="2.06785" transform="matrix(-0.818563 0.574417 0.742522 0.669822 90.6765 42.0916)" fill="#FFBC42"/>
<rect width="4.13569" height="15.4191" rx="2.06785" transform="matrix(0.818563 0.574417 -0.742522 0.669822 99.3394 42.1628)" fill="#FFBC42"/>
<rect x="113.253" y="39.4324" width="3.30735" height="9.28417" rx="1.65368" fill="#FFBC42"/>
<rect width="4.13569" height="15.4191" rx="2.06785" transform="matrix(-0.818563 0.574417 0.742522 0.669822 110.527 42.0916)" fill="#FFBC42"/>
<rect width="4.13569" height="15.4191" rx="2.06785" transform="matrix(0.818563 0.574417 -0.742522 0.669822 119.19 42.1626)" fill="#FFBC42"/>
<rect x="133.104" y="39.4324" width="3.30735" height="9.28417" rx="1.65368" fill="#FFBC42"/>
<rect width="4.13569" height="15.4191" rx="2.06785" transform="matrix(-0.818563 0.574417 0.742522 0.669822 130.378 42.0916)" fill="#FFBC42"/>
<rect width="4.13569" height="15.4191" rx="2.06785" transform="matrix(0.818563 0.574417 -0.742522 0.669822 139.041 42.1628)" fill="#FFBC42"/>
<circle cx="114.898" cy="94.6468" r="22.0858" fill="#100D40"/>
<path d="M104.96 95.1991L111.237 101.642C111.63 102.045 112.277 102.045 112.67 101.642L125.941 88.0212" stroke="white" stroke-width="5" stroke-linecap="round"/>
</svg>
