<svg width="217" height="217" viewBox="0 0 217 217" fill="none" xmlns="http://www.w3.org/2000/svg">
<rect x="97.8809" y="92.8672" width="22.5772" height="62.4194" fill="#C9BBF8"/>
<rect x="97.8809" y="92.8672" width="10.6246" height="62.4194" fill="#B3A0F5"/>
<circle cx="109.225" cy="59.057" r="51.1861" fill="#100D40"/>
<path d="M91.8215 58.5448L103.232 70.4304C103.709 70.9274 104.504 70.9274 104.981 70.4304L128.676 45.7483" stroke="white" stroke-width="12.1229" stroke-linecap="round"/>
<path d="M119.732 167.402L119.732 206.468L97.7407 206.468C81.672 206.468 68.6457 193.442 68.6457 177.374L68.6457 167.402L119.732 167.402Z" fill="#FEB756"/>
<path d="M83.4534 141.794L83.4534 168.622L46.0858 168.622L46.0858 153.917C46.0858 147.221 51.5134 141.794 58.2087 141.794L83.4534 141.794Z" fill="#FEC478"/>
<path d="M83.4534 168.142L83.4534 195.449L58.2087 195.449C51.5134 195.449 46.0858 190.022 46.0858 183.327L46.0858 168.142L83.4534 168.142Z" fill="#FEB756"/>
<path d="M97.8806 124.741L97.8806 168.567L68.663 168.567L68.663 153.836C68.663 137.767 81.8119 124.741 97.8806 124.741Z" fill="#FEC478"/>
<rect x="152.332" y="130.053" width="19.9211" height="63.7475" rx="9.96054" transform="rotate(90 152.332 130.053)" fill="#FEC478"/>
<rect x="152.788" y="168.404" width="19.0322" height="57.0966" rx="9.51611" transform="rotate(90 152.788 168.404)" fill="#FEB756"/>
<rect x="139.766" y="187.436" width="19.0322" height="44.0746" rx="9.51611" transform="rotate(90 139.766 187.436)" fill="#FEB756"/>
<rect x="156.316" y="149.974" width="18.593" height="67.7317" rx="9.29651" transform="rotate(90 156.316 149.974)" fill="#FEC478"/>
<circle cx="19.3566" cy="49.6993" r="3.68809" fill="#AA80F5"/>
<circle cx="11.6881" cy="168.014" r="3.68809" fill="#C9BBF8"/>
<circle cx="174.919" cy="3.68809" r="3.68809" fill="#9377F0"/>
<circle cx="206.688" cy="175.683" r="3.68809" fill="#C9BBF8"/>
<circle cx="199.02" cy="89.1376" r="3.68809" fill="#8673EF"/>
</svg>
