<svg width="48" height="48" viewBox="0 0 48 48" fill="none" xmlns="http://www.w3.org/2000/svg">
<path d="M48 24C48 30.5761 45.3552 36.5339 41.0223 40.8618C38.2087 43.7283 34.6073 45.8642 30.612 47.0445C28.4736 47.6627 26.279 48 23.9719 48C21.8898 48 19.9203 47.719 18.007 47.2693C14.4056 46.3138 11.0856 44.5714 8.32825 42.2108C3.2075 37.8267 0 31.3068 0 24.0562C0 10.7354 10.748 0 24.0281 0C37.3083 0 48 10.7354 48 24Z" fill="#BCC3FF"/>
<path d="M41.0788 40.8618C38.2652 43.7283 34.6638 45.8641 30.6685 47.0444C28.5301 47.6627 26.3355 47.9999 24.0284 47.9999C21.9463 47.9999 19.9768 47.7189 18.0636 47.2693C14.4621 46.3138 11.1421 44.5714 8.38477 42.2107L10.0166 33.3864C10.4106 31.1943 12.0987 29.5081 14.2933 29.1147L18.9076 28.2716L21.3836 27.822L23.9721 27.3723L27.461 28.103L29.2617 28.4964L35.5641 29.7892C37.6462 30.2388 39.3344 31.8688 39.7283 34.0046L41.0788 40.8618Z" fill="#5E57B0"/>
<path d="M30.6679 47.0445C28.5296 47.6628 26.335 48 24.0278 48C21.9458 48 19.9762 47.719 18.063 47.2693L18.9071 28.3279L21.383 27.8782L23.9715 27.4286L27.4604 28.1593L29.2611 28.5527L30.6679 47.0445Z" fill="white"/>
<path d="M18.5138 17.3114C18.5138 17.3114 16.7694 11.6908 18.9077 11.5784C18.9077 11.5784 19.4704 8.76811 22.2278 8.82432C24.9851 8.88052 29.3743 10.1171 30.4435 11.2412C31.5127 12.3653 30.8937 16.9742 30.8937 16.9742L23.5783 19.11L18.5138 17.3114Z" fill="#41180F"/>
<path d="M21.8336 21.4146L21.3271 28.89C21.2709 29.452 21.6648 29.9579 22.1712 30.1265C22.8465 30.2951 23.7468 30.4637 24.7597 30.4075C25.4913 30.3513 26.1665 30.2389 26.673 30.1265C27.2357 29.9579 27.5733 29.452 27.5733 28.89L27.0106 21.4146H21.8336Z" fill="#943E29"/>
<path d="M21.8332 21.4145L21.4956 25.8548C22.6773 26.4168 24.9845 27.1475 27.2916 25.4051L27.0665 22.0327C26.6726 21.8079 26.2787 21.5831 25.8285 21.3583H21.8332V21.4145Z" fill="#5A281D"/>
<path d="M19.3578 13.7144C19.3578 13.7144 18.1761 19.0539 19.808 22.5949C21.4399 26.0797 24.3661 25.9673 25.2664 25.9111C26.1105 25.8549 31.5689 25.2366 29.937 13.9392C29.937 13.9392 21.4962 17.424 19.3578 13.7144Z" fill="#943E29"/>
<path d="M19.6122 19.8383C20.3236 19.4556 20.5061 18.4143 20.0197 17.5124C19.5334 16.6105 18.5625 16.1897 17.8511 16.5724C17.1397 16.9551 16.9572 17.9965 17.4436 18.8983C17.9299 19.8002 18.9008 20.2211 19.6122 19.8383Z" fill="#943E29"/>
<path d="M32.0608 18.9068C32.5471 18.0049 32.3646 16.9636 31.6533 16.5808C30.9419 16.1981 29.9709 16.619 29.4846 17.5208C28.9983 18.4227 29.1807 19.4641 29.8921 19.8468C30.6035 20.2295 31.5744 19.8086 32.0608 18.9068Z" fill="#943E29"/>
</svg>
