<svg width="122" height="121" viewBox="0 0 122 121" fill="none" xmlns="http://www.w3.org/2000/svg">
<path d="M60.504 120.997C60.0801 121 59.6628 120.891 59.2939 120.682L1.21008 89.2201C1.0355 89.1273 0.872949 89.0136 0.726048 88.8813C0.505206 88.692 0.326494 88.4585 0.201439 88.1959C0.0763836 87.9333 0.007762 87.6473 0 87.3566L0 65.1637C0.00934458 64.7803 0.116523 64.4056 0.311363 64.0752C0.506202 63.7448 0.782239 63.4697 1.11327 63.276C1.48119 63.0636 1.89853 62.9517 2.32335 62.9517C2.74818 62.9517 3.16552 63.0636 3.53344 63.276L60.504 94.0362L117.475 63.2518C117.843 63.0394 118.26 62.9275 118.685 62.9275C119.11 62.9275 119.527 63.0394 119.895 63.2518C120.226 63.4455 120.502 63.7206 120.697 64.051C120.892 64.3814 120.999 64.7561 121.008 65.1395V87.3566C121.01 87.6537 120.949 87.9478 120.828 88.2191C120.706 88.4905 120.529 88.7328 120.306 88.9297C120.159 89.062 119.997 89.1758 119.822 89.2685L61.7383 120.731C61.3577 120.927 60.9318 121.019 60.504 120.997ZM4.69511 86.0981L60.504 116.156L116.313 86.0981V68.9634L61.7141 98.4651C61.3462 98.6775 60.9289 98.7894 60.504 98.7894C60.0792 98.7894 59.6619 98.6775 59.2939 98.4651L4.69511 68.9634V86.0981Z" fill="white"/>
<path d="M60.504 89.5348C60.0904 89.5409 59.6821 89.4409 59.3181 89.2444L1.23428 57.7823C0.872464 57.6147 0.564951 57.3489 0.346742 57.0152C0.128534 56.6815 0.00839624 56.2932 1.78678e-06 55.8945V33.6775C-0.000513171 33.2799 0.110292 32.89 0.319874 32.5521C0.529456 32.2142 0.829444 31.9418 1.18588 31.7655C1.55379 31.5531 1.97113 31.4413 2.39596 31.4413C2.82079 31.4413 3.23813 31.5531 3.60604 31.7655L60.504 62.5742L67.7645 58.5809C68.1324 58.3685 68.5498 58.2567 68.9746 58.2567C69.3994 58.2567 69.8168 58.3685 70.1847 58.5809L90.756 69.6895C91.1057 69.8741 91.3998 70.1486 91.6082 70.4846C91.8167 70.8206 91.9318 71.2061 91.9419 71.6014C91.937 71.9978 91.8239 72.3854 91.6149 72.7223C91.406 73.0592 91.109 73.3327 90.756 73.5133L61.7141 89.2202C61.3453 89.4292 60.928 89.5377 60.504 89.5348ZM4.69511 54.6119L60.504 84.6945L84.875 71.5046L69.023 62.9372L61.7625 66.9063C61.3903 67.1054 60.9746 67.2096 60.5524 67.2096C60.1303 67.2096 59.7146 67.1054 59.3423 66.9063L4.69511 37.4771V54.6119Z" fill="white"/>
<path d="M22.8463 78.4263C22.4737 78.4128 22.1093 78.3135 21.7815 78.1359L1.18589 67.0516C0.834782 66.8737 0.539835 66.602 0.333794 66.2666C0.127753 65.9313 0.018678 65.5454 0.018678 65.1518C0.018678 64.7582 0.127753 64.3722 0.333794 64.0369C0.539835 63.7015 0.834782 63.4298 1.18589 63.2519L9.68066 58.6052C10.0486 58.3928 10.4659 58.281 10.8907 58.281C11.3156 58.281 11.7329 58.3928 12.1008 58.6052L32.648 69.7138C32.9976 69.8984 33.2918 70.1729 33.5002 70.5089C33.7086 70.8449 33.8238 71.2304 33.8339 71.6257C33.8289 72.0221 33.7159 72.4097 33.5069 72.7466C33.2979 73.0835 33.0009 73.357 32.648 73.5376L24.0322 78.1359C23.6682 78.3325 23.26 78.4325 22.8463 78.4263ZM7.01848 65.1397L22.8463 73.707L26.7186 71.6015L10.8907 63.0341L7.01848 65.1397Z" fill="white"/>
<path d="M98.1617 78.4263C97.7481 78.4325 97.3398 78.3325 96.9759 78.1359L60.504 58.4358L53.2436 62.4049C52.8756 62.6173 52.4583 62.7291 52.0335 62.7291C51.6086 62.7291 51.1913 62.6173 50.8234 62.4049L30.252 51.2963C29.8991 51.1158 29.6021 50.8423 29.3931 50.5053C29.1841 50.1684 29.0711 49.7808 29.0661 49.3844C29.0762 48.9891 29.1914 48.6037 29.3998 48.2676C29.6083 47.9316 29.9024 47.6572 30.252 47.4725L59.294 31.7656C59.6662 31.5665 60.0819 31.4623 60.504 31.4623C60.9262 31.4623 61.3419 31.5665 61.7141 31.7656L119.798 63.2277C120.148 63.4095 120.442 63.6839 120.647 64.021C120.851 64.3582 120.96 64.7451 120.96 65.1397C120.956 65.5332 120.843 65.9179 120.633 66.2511C120.424 66.5843 120.127 66.853 119.774 67.0274L99.2266 78.1359C98.8988 78.3135 98.5343 78.4129 98.1617 78.4263ZM60.504 53.6923C60.9177 53.6862 61.3259 53.7861 61.6899 53.9827L98.1617 73.707L113.965 65.1397L60.504 36.2913L36.133 49.3844L51.9851 58.0728L59.2456 54.1037C59.6186 53.8523 60.0545 53.7098 60.504 53.6923Z" fill="white"/>
<path d="M98.1617 46.964C97.7467 46.9576 97.3395 46.8496 96.9759 46.6494L60.504 26.9493L24.0322 46.6494C23.6643 46.8618 23.2469 46.9737 22.8221 46.9737C22.3973 46.9737 21.98 46.8618 21.612 46.6494L1.18588 35.5651C0.833109 35.3907 0.535549 35.122 0.326219 34.7888C0.116888 34.4555 0.00397188 34.0708 5.44851e-09 33.6773C-2.80503e-05 33.2828 0.108294 32.8959 0.313149 32.5587C0.518003 32.2216 0.811521 31.9472 1.16168 31.7654L59.2455 0.303329C59.6178 0.10419 60.0335 0 60.4556 0C60.8778 0 61.2934 0.10419 61.6657 0.303329L119.75 31.7654C120.1 31.9472 120.393 32.2216 120.598 32.5587C120.803 32.8959 120.911 33.2828 120.911 33.6773C120.907 34.0708 120.794 34.4555 120.585 34.7888C120.376 35.122 120.078 35.3907 119.725 35.5651L99.2266 46.6494C98.9008 46.8354 98.5363 46.9431 98.1617 46.964ZM60.504 22.2058C60.9176 22.1997 61.3259 22.2996 61.6899 22.4962L98.1617 42.2205L113.965 33.6773L60.504 4.82903L7.04267 33.871L22.8463 42.4141L59.3182 22.4962C59.6821 22.2996 60.0904 22.1997 60.504 22.2058Z" fill="white"/>
<path d="M110.142 62.6952C109.728 62.7013 109.32 62.6013 108.956 62.4048L88.4085 51.2962C88.0555 51.1157 87.7586 50.8422 87.5496 50.5052C87.3406 50.1683 87.2275 49.7808 87.2226 49.3843C87.2327 48.989 87.3479 48.6036 87.5563 48.2675C87.7647 47.9315 88.0588 47.6571 88.4085 47.4724L117.45 31.7655C117.818 31.5531 118.236 31.4413 118.661 31.4413C119.085 31.4413 119.503 31.5531 119.871 31.7655C120.227 31.9418 120.527 32.2142 120.737 32.5521C120.946 32.89 121.057 33.2799 121.056 33.6775V55.8945C121.052 56.288 120.94 56.6727 120.73 57.006C120.521 57.3392 120.223 57.6079 119.871 57.7823L111.327 62.4048C110.963 62.6013 110.555 62.7013 110.142 62.6952ZM94.3863 49.3843L110.142 58.0727L116.313 54.7329V37.4771L94.3863 49.3843Z" fill="white"/>
</svg>
