<svg width="48" height="48" viewBox="0 0 48 48" fill="none" xmlns="http://www.w3.org/2000/svg">
<path d="M28.9197 17.9975C28.9197 17.9975 29.4824 15.2402 29.2573 10.6822C28.7509 0.665751 24.5305 0.947112 22.3359 0.722024C18.0029 0.215576 16.0897 2.579 16.0897 2.579C12.5445 3.53562 12.4883 17.9412 12.4883 17.9412C14.4578 18.5602 17.3839 19.2355 20.9291 19.1792C24.2491 19.1792 27.0065 18.5602 28.9197 17.9975Z" fill="#5A281D"/>
<path d="M14.007 39.2684C15.9202 39.7749 17.946 40 19.9718 40C22.279 40 24.5298 39.6623 26.6119 39.0433C29.8757 38.0867 32.8018 36.5111 35.3341 34.3728L34.2086 26.7761C33.871 24.3564 32.3516 22.4994 30.4947 21.9929L24.8112 20.5299L23.1793 20.136L20.0281 19.3481L17.6647 19.8546L15.4138 20.361L11.2496 21.3177C9.28012 21.7678 7.76079 23.6811 7.42316 26.1571L6.07263 35.5545C8.43606 37.2426 11.1371 38.4806 14.007 39.2684Z" fill="#BB5A39"/>
<path opacity="0.3" d="M35.2783 33.6974C34.8844 33.3598 34.4905 33.0222 34.1528 32.572C32.8023 30.8838 32.1833 28.5204 32.4084 26.1007C32.9711 26.0444 33.5338 25.9882 34.0403 25.9882C33.984 25.8193 33.9278 25.5943 33.8715 25.4254C33.4213 25.4254 32.9711 25.4817 32.4647 25.538V25.4817C32.5772 24.8627 32.6898 24.3 32.8586 23.681C32.746 23.5122 32.5772 23.3434 32.4084 23.1746C32.1833 23.9061 31.9582 24.6376 31.8457 25.3692C31.8457 25.4254 31.8457 25.538 31.7894 25.5943C30.5514 25.8193 29.3135 26.2133 28.0755 26.776C25.4307 27.9577 23.1798 29.8147 21.4354 32.1218C21.3228 32.0093 21.154 31.953 20.9852 31.8967C17.1587 29.7584 12.263 29.8709 8.49281 32.1218C7.64873 32.6283 6.86093 33.3035 6.1294 33.9788L5.96057 34.9917C6.74838 34.0913 7.705 33.2472 8.77417 32.6283C12.3756 30.4336 17.0462 30.3774 20.7038 32.4032C20.8164 32.4594 20.9289 32.5157 21.0415 32.6283C19.4659 34.8229 18.3404 37.3551 17.8902 39.9436C18.0591 39.9436 18.2841 39.9999 18.453 39.9999C18.9594 37.4676 20.0286 35.0479 21.5479 32.9096C23.7425 34.3727 25.4307 36.6236 26.2185 39.1558C26.331 39.1558 26.3873 39.0995 26.4998 39.0995C26.6124 39.0995 26.6687 39.0433 26.7812 39.0433C25.9371 36.3985 24.1927 34.0351 21.8856 32.5157C23.5737 30.3211 25.7683 28.5204 28.2443 27.395C29.3697 26.8885 30.5514 26.4946 31.6769 26.2695C31.4518 28.8018 32.127 31.1652 33.5338 32.9659C33.984 33.5849 34.5467 34.0913 35.1657 34.4852C35.1657 34.4852 35.1657 34.4852 35.222 34.4852L35.2783 33.6974Z" fill="white"/>
<path opacity="0.3" d="M9.50539 27.2826C8.77385 27.9016 7.92976 28.4643 7.0294 28.9144L6.91687 29.5897C7.98604 29.0833 8.94265 28.4643 9.843 27.6765C10.5745 27.0575 11.1935 26.3822 11.6437 25.6507C12.1502 25.8758 12.7129 26.0446 13.2193 26.1571C18.0024 27.2263 23.2357 25.5944 26.4995 21.993C26.7246 21.7116 27.006 21.4303 27.1748 21.1489L26.5558 20.9801C26.387 21.2052 26.2182 21.374 26.0493 21.5991C22.8981 25.088 17.8899 26.6636 13.2756 25.5944C12.8254 25.4819 12.319 25.313 11.8688 25.1442C12.0376 24.8629 12.1502 24.5815 12.2627 24.2439C12.6566 23.1184 12.6566 21.993 12.3752 20.9801L11.8125 21.0926C12.0939 21.993 12.0939 23.0059 11.7563 24.0188C11.6437 24.3001 11.5312 24.5815 11.3624 24.8629C10.2932 24.3001 9.39284 23.5123 8.94267 22.5557C8.77385 22.7245 8.6613 22.8933 8.54875 23.0622C9.11147 24.0188 10.0118 24.8066 11.081 25.313C10.7434 26.1008 10.1806 26.7198 9.50539 27.2826Z" fill="white"/>
<path d="M17.8337 13.4396L17.3273 20.9237C17.271 21.4865 17.6649 21.9929 18.1713 22.1617C18.8466 22.3305 19.747 22.4994 20.7599 22.4431C21.4914 22.3868 22.1667 22.2743 22.6731 22.1617C23.2358 21.9929 23.5735 21.4865 23.5735 20.9237L23.067 13.4396H17.8337Z" fill="#F79387"/>
<path d="M17.834 13.4396L17.4963 17.8851C18.678 18.4478 20.9852 19.1793 23.2924 17.4349L23.0673 14.0586C22.6734 13.8335 22.2795 13.6084 21.8293 13.3833H17.834V13.4396Z" fill="#D6735C"/>
<path d="M15.5835 5.95532C15.5835 5.95532 14.4581 11.0198 16.0337 14.4524C17.553 17.7724 20.3666 17.7162 21.2107 17.6036C22.0548 17.5473 27.2318 16.9846 25.6562 6.18041C25.6562 6.23668 17.8344 6.4055 15.5835 5.95532Z" fill="#F79387"/>
<path d="M15.3014 8.99407C15.3014 8.99407 17.0458 7.81236 17.8899 6.40556C17.8899 6.40556 20.197 8.9378 25.9368 9.16289C25.9368 9.16289 25.993 6.96828 25.6554 5.67403C25.3178 4.37977 15.4702 5.28012 15.4702 5.28012C15.4702 5.28012 14.5698 8.09372 15.3014 8.99407Z" fill="#5A281D"/>
<path d="M15.8226 11.8808C16.5066 11.5123 16.6788 10.5039 16.2072 9.62833C15.7356 8.75277 14.7988 8.34166 14.1148 8.71009C13.4307 9.07852 13.2585 10.087 13.7301 10.9625C14.2017 11.8381 15.1385 12.2492 15.8226 11.8808Z" fill="#F79387"/>
<path d="M27.7405 10.9398C28.2121 10.0642 28.0399 9.05578 27.3559 8.68735C26.6718 8.31892 25.735 8.73003 25.2634 9.60559C24.7918 10.4811 24.9641 11.4896 25.6481 11.858C26.3321 12.2265 27.2689 11.8154 27.7405 10.9398Z" fill="#F79387"/>
<path d="M14.7385 12.4267C14.9871 12.4267 15.1887 12.2252 15.1887 11.9765C15.1887 11.7279 14.9871 11.5264 14.7385 11.5264C14.4899 11.5264 14.2883 11.7279 14.2883 11.9765C14.2883 12.2252 14.4899 12.4267 14.7385 12.4267Z" fill="white"/>
<path d="M26.3874 12.4267C26.6361 12.4267 26.8376 12.2252 26.8376 11.9765C26.8376 11.7279 26.6361 11.5264 26.3874 11.5264C26.1388 11.5264 25.9373 11.7279 25.9373 11.9765C25.9373 12.2252 26.1388 12.4267 26.3874 12.4267Z" fill="white"/>
<path opacity="0.3" d="M12.4319 38.7618L12.2068 27.2823L10.2936 37.9177C11.0251 38.2554 11.7004 38.5367 12.4319 38.7618Z" fill="#4A1300"/>
<path opacity="0.3" d="M30.0447 27.3386L30.2135 37.7489C30.8888 37.4113 31.6203 37.0737 32.2393 36.6235L30.0447 27.3386Z" fill="#4A1300"/>
<path d="M0 24.0844C0 29.7678 1.97415 35.0011 5.302 39.1652C6.82491 41.0785 8.62985 42.7104 10.6604 44.0609C10.9424 44.286 11.2808 44.4548 11.5629 44.6236C13.0294 45.524 14.5523 46.1992 16.188 46.762C16.3572 46.8182 16.5828 46.8745 16.8085 46.9308C17.3161 47.0996 17.8237 47.2121 18.3314 47.3247C18.5006 47.3809 18.7262 47.4372 18.8954 47.4372C20.5311 47.7748 22.2797 47.9999 24.0282 47.9999C24.6487 47.9999 25.2691 47.9999 25.8895 47.9437C26.0588 47.9437 26.1716 47.8874 26.3408 47.8874C28.5969 47.6623 30.7403 47.1559 32.7709 46.3681C32.9965 46.2555 33.2221 46.1992 33.3913 46.0867C34.0681 45.8053 34.8014 45.4677 35.4219 45.1301C35.5911 45.0175 35.7603 44.905 35.9295 44.8487C35.9295 44.8487 35.9859 44.8487 35.9859 44.7924C36.1551 44.6799 36.3807 44.5674 36.5499 44.4548C38.4677 43.2731 40.1598 41.8663 41.6827 40.2344C41.7391 40.1782 41.7391 40.1219 41.7955 40.1219C45.631 35.8452 48 30.218 48 24.0281C48 10.7479 37.2268 0 23.9154 0C10.604 0 0 10.8042 0 24.0844Z" fill="#BCC3FF"/>
<path d="M33.8982 42.429L35.5339 45.1863C35.7031 45.0737 35.8723 44.9612 36.0415 44.9049C36.0415 44.9049 36.098 44.9049 36.098 44.8487C36.2672 44.7361 36.4928 44.6236 36.662 44.511C38.5797 43.3293 40.2719 41.9225 41.7948 40.2906L41.5128 39.7842L36.7748 41.4161L35.4211 41.8662L34.3494 42.2601L33.8982 42.429Z" fill="#943E29"/>
<path d="M31.7551 38.4337L34.3497 42.2602L34.5753 42.5979L36.0982 44.8487C36.2674 44.7362 36.4931 44.6236 36.6623 44.5111C38.58 43.3294 40.2721 41.9226 41.7951 40.2907C41.8515 40.2344 41.8515 40.1782 41.9079 40.1782L40.4414 37.7022L37.0007 32.0187L36.9443 31.9062L36.7751 31.6248C36.7187 31.5123 36.6623 31.456 36.5495 31.3435L36.4931 31.2872C36.2674 31.0621 35.9854 30.8933 35.647 30.7808C35.5906 30.7808 35.5342 30.7245 35.4778 30.7245C35.365 30.7245 35.2522 30.7245 35.1394 30.7245C34.3497 30.7245 33.6165 31.1747 33.3344 31.9625L32.2627 34.7761L31.9243 35.6201L31.5295 36.6893C31.3039 37.252 31.4167 37.9273 31.7551 38.4337Z" fill="#A79F58"/>
<path d="M9.58898 31.9626L10.2094 38.8277L10.2658 39.3342L10.4914 41.6976L10.7171 44.061C10.9991 44.2861 11.3375 44.4549 11.6195 44.6237C13.086 45.5241 14.609 46.1994 16.2447 46.7621C16.4139 46.8183 16.6395 46.8746 16.8651 46.9309C17.3728 47.0997 17.8804 47.2122 18.388 47.3248C18.5573 47.3811 18.7829 47.4373 18.9521 47.4373C20.5878 47.775 22.3363 48 24.0849 48C24.7053 48 25.3258 48.0001 25.9462 47.9438C26.1154 47.9438 26.2282 47.8875 26.3974 47.8875C28.6536 47.6624 30.797 47.156 32.8275 46.3682C33.0531 46.2556 33.2788 46.1994 33.448 46.0868C34.1248 45.8054 34.8581 45.4678 35.4785 45.1302C35.6477 45.0176 35.8169 44.9051 35.9862 44.8488C35.9862 44.8488 36.0426 44.8488 36.0426 44.7926C36.2118 44.68 36.4374 44.5675 36.6066 44.4549L36.7194 41.36V40.6847L37.0578 32.8629C37.0578 32.6941 37.0578 32.469 37.0014 32.3002C37.0014 32.3002 37.0014 32.3002 37.0014 32.2439C37.0014 32.1876 36.945 32.1314 36.945 32.0751C36.945 32.0188 36.945 32.0188 36.8886 31.9626C36.8886 31.9626 36.8886 31.9063 36.8322 31.9063C36.7194 31.6812 36.6066 31.5124 36.4374 31.3436L36.381 31.2873C36.1554 31.0622 35.8733 30.8934 35.5349 30.7808L35.3657 30.7246L27.1871 28.3049L24.7053 27.5734L24.1977 27.4608L23.3516 27.2357L20.5314 27.8547L18.6137 28.2486L18.106 28.3612L11.2247 29.8242C11.0555 29.8805 10.8299 29.9368 10.6607 29.993C9.98381 30.2744 9.53257 31.0622 9.58898 31.9626Z" fill="#A79F58"/>
<path d="M5.30273 39.109C6.82565 41.0222 8.63058 42.6541 10.6611 44.0046C10.9432 44.2297 11.2816 44.3985 11.5636 44.5673L12.2969 42.7104L13.8198 38.9401L14.0454 38.3774L15.2863 35.2825C16.1323 33.2567 15.1735 30.8933 13.1429 29.9929C12.5789 29.7678 12.0712 29.6553 11.5072 29.6553C11.2252 29.6553 10.8868 29.7115 10.6047 29.7678C9.30744 30.0492 8.17935 31.0058 7.67171 32.3563L5.30273 38.715V39.109Z" fill="#A79F58"/>
<path d="M29.8939 14.9684C29.8939 14.9684 32.0937 13.7867 31.7553 12.2111C31.4169 10.6355 23.7459 8.38462 20.7001 11.0294C20.7001 11.0294 18.4439 10.6918 19.4028 17.2756C20.3616 23.8031 28.7659 18.5136 28.7659 18.5136" fill="#41180F"/>
<path d="M30.2886 13.224C30.2886 13.224 33.0524 23.1279 26.6787 24.816L27.5812 30.2181C27.694 30.7246 27.3556 31.231 26.8479 31.3998C25.6071 31.7937 23.1817 32.1876 20.7563 30.0493C20.4743 29.8242 20.3615 29.4866 20.4179 29.1489C20.6435 27.6859 21.1511 23.4655 20.9255 20.8207C20.9255 20.8207 18.3309 20.7644 18.5001 18.4573C18.6693 16.1501 20.4743 16.3752 21.4895 17.8946C21.4895 17.8946 22.6176 16.2627 22.2792 13.5616C22.2228 13.5616 27.0736 14.3494 30.2886 13.224Z" fill="#943E29"/>
<path d="M26.679 24.8158C26.679 24.8158 24.3664 25.0409 23.3511 23.2402C23.3511 23.2402 22.8435 25.8287 26.9046 26.1664L26.679 24.8158Z" fill="#5A281D"/>
<path d="M29.9234 39.7842H19.1771V42.9677H29.9234V39.7842Z" fill="white"/>
</svg>
