<svg width="20" height="20" viewBox="0 0 20 20" fill="none" xmlns="http://www.w3.org/2000/svg">
<path d="M11.2082 12.4833L7.3999 13.2916L8.20824 9.48329C8.26657 9.20829 8.3999 8.95829 8.5999 8.75829L13.9332 3.42496C14.4999 2.85829 15.4166 2.85829 15.9832 3.42496L17.2582 4.69996C17.8249 5.26662 17.8249 6.18329 17.2582 6.74996L11.9249 12.0833C11.7332 12.2833 11.4832 12.425 11.2082 12.4833Z" stroke="#999999" stroke-width="1.2" stroke-miterlimit="10" stroke-linecap="round" stroke-linejoin="round"/>
<path d="M15.5334 8.50828V16.0499C15.5334 16.9416 14.8084 17.6583 13.9251 17.6583H4.60842C3.71675 17.6583 3.00008 16.9333 3.00008 16.0499V6.74161C3.00008 5.84994 3.72508 5.13328 4.60842 5.13328H12.1251" stroke="#999999" stroke-width="1.2" stroke-miterlimit="10" stroke-linecap="round" stroke-linejoin="round"/>
</svg>
