<svg width="48" height="48" viewBox="0 0 48 48" fill="none" xmlns="http://www.w3.org/2000/svg">
<path d="M48 23.9156C48 30.9496 44.9577 37.3083 40.1127 41.6975C39.3239 42.4291 38.5352 43.0481 37.6338 43.6671C37.1831 44.0047 36.6761 44.286 36.169 44.6237C36 44.7362 35.7746 44.8488 35.6056 44.9613C35.3239 45.1301 35.0423 45.2427 34.7606 45.4115C34.1408 45.7491 33.4648 46.0305 32.7887 46.3118C32.1127 46.5932 31.4366 46.8183 30.7606 46.9871C30.0282 47.2122 29.2958 47.381 28.507 47.5498C27.0423 47.8312 25.5211 48 23.9437 48C20.4507 48 17.1831 47.2685 14.1972 45.9179C14.0845 45.8617 13.9155 45.8054 13.8028 45.7491C13.6901 45.6928 13.5775 45.6366 13.4648 45.5803C12.9014 45.2989 12.338 45.0176 11.7746 44.68C11.5493 44.5674 11.3239 44.4549 11.1549 44.286C9.63381 43.3294 8.28169 42.204 7.04225 40.966L6.76056 40.6846C6.3662 40.2345 5.97183 39.8406 5.57747 39.3904C5.52113 39.2778 5.40845 39.1653 5.35211 39.109C4.90141 38.5463 4.4507 37.9273 4.05634 37.3083C1.52113 33.4818 0 28.9238 0 24.0281C0 10.7479 10.7606 0 24.0563 0C37.3521 0 48 10.6354 48 23.9156Z" fill="#BCC3FF"/>
<path d="M20.8449 17.6694C20.8449 17.6694 20.2815 26.7855 20.8449 29.0927C20.8449 29.0927 16.6759 29.2615 15.2675 26.673C13.859 24.0844 16.0562 11.367 18.8731 8.38456C21.69 5.40214 32.2252 4.33298 31.8872 13.224C31.5492 22.1149 30.7041 30.4995 30.7041 30.4995C30.7041 30.4995 27.3801 30.7245 25.0703 28.6987L20.8449 17.6694Z" fill="#4E2722"/>
<path d="M40.1126 41.6975C39.3238 42.429 38.5351 43.048 37.6337 43.667C37.183 44.0046 36.676 44.286 36.1689 44.6236C35.9999 44.7362 35.7745 44.8487 35.6055 44.9612C35.3238 45.1301 35.0422 45.2426 34.7605 45.4114C34.1407 45.7491 33.4647 46.0304 32.7886 46.3118L32.7323 46.143L32.6196 45.7491L32.4506 45.0738L30.2534 35.5638L34.3098 30.2743L34.9295 29.4302C34.9295 29.4302 35.0421 29.4864 35.1548 29.6553C35.6055 30.1054 36.676 31.2872 37.4647 32.8628C37.9717 33.6506 39.0421 37.5333 40.1126 41.6975Z" fill="#FEBE00"/>
<path d="M35.2673 29.599C35.0983 29.4302 35.042 29.3739 35.042 29.3739L34.4222 30.218C34.7039 29.9929 34.9856 29.7678 35.2673 29.599Z" fill="#E0A000"/>
<path d="M37.634 43.6107C37.1833 43.9483 36.6762 44.2297 36.1692 44.5673C36.0002 44.6799 35.7748 44.7924 35.6058 44.905C35.3241 45.0175 35.0424 45.1301 34.7607 45.2426C34.0847 45.524 33.4086 45.8053 32.7326 46.0867L32.6199 45.6928C33.2959 45.4114 34.0283 45.0738 34.7607 44.7924C35.2114 44.6236 35.6621 44.4548 36.1128 44.2297C36.6762 44.0609 37.1269 43.8358 37.634 43.6107Z" fill="#E0A000"/>
<path d="M36.2247 44.5673C36.0556 44.6799 35.8303 44.7924 35.6613 44.905C35.3796 45.0738 35.0979 45.1863 34.8162 45.3551C34.1965 45.6928 33.5204 45.9741 32.8444 46.2555L32.788 46.0867L32.6754 45.6928L32.5063 45.0175V39.2215L34.5345 35.0011L34.9289 37.1394L36.1683 44.2297L36.2247 44.5673Z" fill="#D39700"/>
<path d="M35.0421 29.3739V29.7679L34.9294 37.1395L34.8168 44.7925V45.2426V45.3552C34.197 45.6928 33.521 45.9742 32.8449 46.2555C32.1689 46.5369 31.4928 46.762 30.8168 46.9308C30.0844 47.1559 29.352 47.3247 28.5632 47.4935C27.0984 47.7749 25.5773 47.9437 23.9999 47.9437C20.5069 47.9437 17.2393 47.2122 14.2534 45.8616C14.1407 45.8054 13.9717 45.7491 13.859 45.6928C13.7463 45.6366 13.6337 45.5803 13.521 45.524C12.9576 45.2426 12.3942 44.9613 11.8308 44.6237L11.7745 43.5545L11.5491 38.4337V37.9836V37.7585L11.4365 35.2825V34.8323L11.1548 28.9238C11.3238 28.8112 12.8449 27.5732 15.2675 26.5041C16.5632 25.9414 18.028 25.3786 19.7182 25.0973H19.7745C19.8872 25.0973 19.9999 25.041 20.1689 25.041C20.3379 24.9847 20.5632 24.9847 20.7323 24.9285C21.4646 24.8159 22.2534 24.8159 23.0421 24.8159C23.2675 24.8159 23.4928 24.8159 23.7182 24.8722C24.5069 24.9285 25.2393 24.9847 25.9153 25.1535C25.9717 25.1535 26.028 25.1536 26.0844 25.2098C26.2534 25.2098 26.3661 25.2661 26.5351 25.2661C26.6477 25.3224 26.8168 25.3224 26.9858 25.3786C28.6196 25.7725 30.028 26.3353 31.2675 26.9543C31.4928 27.0668 31.6618 27.1793 31.8872 27.2356C31.9435 27.2356 31.9435 27.2919 31.9999 27.2919C33.8027 28.3048 34.9294 29.2614 35.2111 29.4865C35.0421 29.3177 35.0421 29.3739 35.0421 29.3739Z" fill="#FEBE00"/>
<path d="M35.0427 29.3739V29.7678C34.8174 29.9366 34.592 30.0492 34.423 30.218C27.4934 35.1136 20.7892 40.4032 14.254 45.8616C14.1413 45.8053 13.9723 45.749 13.8596 45.6928C20.6765 40.0093 27.7188 34.4946 34.9864 29.3176C35.0427 29.3176 35.0427 29.3739 35.0427 29.3739Z" fill="#E0A000"/>
<path d="M11.3232 34.7198V35.17C16.2247 31.6811 21.2387 28.3048 26.3655 25.0973C26.1965 25.041 25.9711 25.041 25.8021 24.9847C20.9007 28.0797 16.0556 31.3435 11.3232 34.7198Z" fill="#E0A000"/>
<path d="M11.4924 38.3212C18.3657 34.4947 25.1826 30.7244 32.1121 27.2356C31.9995 27.1793 31.8305 27.0668 31.7178 27.0105C24.9572 30.4431 18.1967 34.1008 11.4924 37.871V38.3212Z" fill="#E0A000"/>
<path d="M34.8172 44.7925V45.2427C34.1411 45.524 33.4651 45.8054 32.789 46.0867C32.113 46.3681 31.4369 46.6495 30.7608 46.9308C30.0285 47.1559 29.2961 47.3247 28.5073 47.4935C29.9158 46.8745 31.2679 46.3118 32.6763 45.6928C33.4087 45.4115 34.0848 45.0738 34.8172 44.7925Z" fill="#E0A000"/>
<path d="M18.8725 25.1535C18.6472 26.3352 18.2528 29.3739 20.45 30.4994C23.2669 31.9062 24.45 29.0363 24.45 29.0363C24.45 29.0363 26.7599 30.6682 28.112 28.7549C28.8444 27.6295 28.45 26.3352 27.8303 25.5474C26.2528 24.8722 24.5063 24.422 22.8725 24.422C21.4078 24.422 20.112 24.8159 18.8725 25.1535Z" fill="white"/>
<path d="M15.4924 35.17L15.3798 35.7328L15.2671 36.2392L14.5347 40.122L13.4643 45.4678C12.9009 45.1865 12.3375 44.9051 11.7741 44.5675L11.7178 43.4983L11.4924 38.3775V37.9274V37.7023L15.4924 35.17Z" fill="#D39700"/>
<path d="M17.4091 34.6073C17.3527 34.7761 17.2964 34.9449 17.2964 35.1138C16.902 36.5206 16.226 37.9274 15.3809 39.0528C15.1555 39.3342 14.8738 39.7281 14.5358 40.122C13.8034 41.0786 12.7893 42.2603 11.7753 43.4983C11.6062 43.7234 11.3809 43.9485 11.2119 44.1735C9.69075 43.2169 8.33863 42.0915 7.09919 40.8535L6.8175 40.5721C6.42314 40.122 6.02877 39.7281 5.63441 39.2779C5.57807 39.1653 5.46539 39.0528 5.40905 38.9965C4.95835 38.4338 4.50765 37.8148 4.11328 37.1958C5.63441 35.0012 7.21187 32.7503 8.733 31.0059C9.57807 29.9367 10.4231 29.2615 11.2119 28.8113C14.1415 27.1231 16.1696 29.2615 16.1696 29.2615C16.6767 29.6554 17.0147 30.1618 17.2964 30.6683C17.3527 30.7808 17.4091 30.8934 17.4654 31.0622C17.6907 32.1313 17.6907 33.3693 17.4091 34.6073Z" fill="#FEBE00"/>
<path d="M28.789 10.5791C28.789 10.5791 33.6904 19.864 26.0848 22.0023L26.4228 25.9414C26.4228 25.9414 25.8031 28.136 23.0988 27.9671C20.3946 27.7983 20.0002 24.9285 20.0002 24.9285L20.789 18.0633L22.3101 15.6999L22.7608 13.6178C22.8171 13.6178 26.5355 13.5052 28.789 10.5791Z" fill="#E89A83"/>
<path d="M20.6467 18.1622C21.7269 18.0242 22.4906 17.0376 22.3524 15.9587C22.2142 14.8798 21.2265 14.117 20.1463 14.2551C19.0661 14.3931 18.3025 15.3796 18.4407 16.4586C18.5789 17.5375 19.5665 18.3002 20.6467 18.1622Z" fill="#E89A83"/>
<path d="M20.7734 18.7945C21.0248 18.5187 21.0046 18.0916 20.7285 17.8406C20.4523 17.5895 20.0247 17.6096 19.7734 17.8855C19.5221 18.1613 19.5422 18.5884 19.8184 18.8394C20.0945 19.0904 20.5221 19.0703 20.7734 18.7945Z" fill="#FCFFFF"/>
<path d="M26.141 22.0024C26.141 22.0024 24.0565 22.4526 22.7043 21.2146C22.7043 21.2146 23.0987 23.4092 26.2536 23.5218L26.141 22.0024Z" fill="#D6735C"/>
<path d="M17.4088 34.6073C17.3525 34.7761 17.2961 34.9449 17.2961 35.1137C17.0708 35.2263 16.8454 35.3388 16.6201 35.4514C16.1694 35.6765 15.7187 35.9578 15.268 36.1829C14.0285 36.8582 12.7328 37.5897 11.4933 38.265C9.9722 39.1091 8.50741 39.9531 6.98628 40.7972L6.70459 40.5159C8.28205 39.6155 9.85952 38.7151 11.437 37.8148C11.8877 37.5897 12.2821 37.3084 12.7328 37.0833C13.5778 36.5768 14.4792 36.1266 15.3243 35.6202C15.944 35.2826 16.6201 34.8887 17.2398 34.551C17.2961 34.6636 17.3525 34.6073 17.4088 34.6073Z" fill="#E0A000"/>
<path d="M17.2954 31.0621C15.9433 32.0187 14.5912 32.9191 13.1827 33.8757C13.0701 33.932 12.9574 34.0445 12.8447 34.1008C12.3377 34.4384 11.8306 34.8323 11.3236 35.17C9.35175 36.5205 7.43626 37.9273 5.52076 39.2778C5.46443 39.1653 5.35175 39.0527 5.29541 38.9965C7.26724 37.5334 9.29541 36.1266 11.3236 34.7198C12.2813 34.0445 13.2391 33.3693 14.1968 32.694C14.9855 32.1313 15.7743 31.6248 16.563 31.0621C16.732 30.9496 16.9574 30.7808 17.1264 30.6682C17.1827 30.7808 17.2391 30.9496 17.2954 31.0621Z" fill="#E0A000"/>
</svg>
