<svg width="262" height="119" viewBox="0 0 262 119" fill="none" xmlns="http://www.w3.org/2000/svg">
<path d="M0.751434 69.324L2.61213 69.3639L4.47282 69.4141L6.33352 69.4708L8.19421 69.5278L10.0549 69.5764L11.9156 69.606L13.7763 69.6052L15.637 69.5628L17.4977 69.4704L19.3584 69.324L21.2191 69.1264L23.0798 68.8889L24.9405 68.6325L26.8011 68.3877L28.6618 68.193L30.5225 68.0914L32.3832 68.1254L34.2439 68.331L36.1046 68.7302L37.9653 69.324L39.826 70.0865L41.6867 70.9612L43.5474 71.8615L45.4081 72.6748L47.2688 73.2716L49.1295 73.5202L50.9902 73.3036L52.8509 72.5395L54.7116 71.1993L56.5722 69.324L58.4329 67.0336L60.2936 64.5271L62.1543 62.0728L64.015 59.9852L65.8757 58.5933L67.7364 58.1992L69.5971 59.034L71.4578 61.2151L73.3185 64.7116L75.1792 69.324L77.0399 74.6829L78.9006 80.27L80.7613 85.462L82.622 89.5948L84.4827 92.041L86.3433 92.2938L88.204 90.0456L90.0647 85.2503L91.9254 78.1593L93.7861 69.324L95.6468 59.5595L97.5075 49.8717L99.3682 41.3528L101.229 35.0571L103.09 31.8701L104.95 32.3883L106.811 36.8261L108.672 44.9634L110.532 56.1433L112.393 69.324L114.254 83.1805L116.114 96.2467L117.975 107.081L119.836 114.437L121.697 117.416L123.557 115.579L125.418 109.017L127.279 98.3435L129.139 84.6378L131 69.324L132.861 54.0103L134.721 40.3045L136.582 29.631L138.443 23.0686L140.303 21.2322L142.164 24.2106L144.025 31.5668L145.886 42.4014L147.746 55.4676L149.607 69.324L151.468 82.5047L153.328 93.6846L155.189 101.822L157.05 106.26L158.91 106.778L160.771 103.591L162.632 97.2952L164.492 88.7764L166.353 79.0885L168.214 69.324L170.075 60.4887L171.935 53.3978L173.796 48.6024L175.657 46.3542L177.517 46.6071L179.378 49.0533L181.239 53.186L183.099 58.3781L184.96 63.9652L186.821 69.324L188.682 73.9364L190.542 77.433L192.403 79.6141L194.264 80.4489L196.124 80.0548L197.985 78.6628L199.846 76.5753L201.706 74.1209L203.567 71.6145L205.428 69.324L207.288 67.4488L209.149 66.1086L211.01 65.3444L212.871 65.1278L214.731 65.3764L216.592 65.9733L218.453 66.7865L220.313 67.6869L222.174 68.5616L224.035 69.324L225.895 69.9178L227.756 70.317L229.617 70.5227L231.477 70.5567L233.338 70.455L235.199 70.2603L237.06 70.0156L238.92 69.7592L240.781 69.5217L242.642 69.324L244.502 69.1776L246.363 69.0852L248.224 69.0429L250.084 69.042L251.945 69.0717L253.806 69.1203L255.666 69.1772L257.527 69.2339L259.388 69.2841L261.249 69.324" stroke="#FF552F" stroke-width="1.5" stroke-linecap="round"/>
<path d="M261.249 49.2858L259.388 49.3257L257.527 49.3759L255.666 49.4326L253.806 49.4895L251.945 49.5381L250.084 49.5678L248.224 49.5669L246.363 49.5246L244.502 49.4322L242.642 49.2858L240.781 49.0881L238.92 48.8506L237.06 48.5942L235.199 48.3495L233.338 48.1548L231.477 48.0531L229.617 48.0872L227.756 48.2928L225.895 48.692L224.035 49.2858L222.174 50.0482L220.313 50.923L218.453 51.8233L216.592 52.6365L214.731 53.2334L212.871 53.482L211.01 53.2654L209.149 52.5012L207.288 51.1611L205.428 49.2858L203.567 46.9953L201.706 44.4889L199.846 42.0345L197.985 39.947L196.124 38.5551L194.264 38.161L192.403 38.9958L190.542 41.1768L188.682 44.6734L186.821 49.2858L184.96 54.6446L183.099 60.2317L181.239 65.4238L179.378 69.5565L177.517 72.0027L175.657 72.2556L173.796 70.0074L171.935 65.212L170.075 58.1211L168.214 49.2858L166.353 39.5213L164.492 29.8334L162.632 21.3146L160.771 15.0189L158.91 11.8319L157.05 12.3501L155.189 16.7879L153.328 24.9252L151.468 36.1051L149.607 49.2858L147.746 63.1423L145.886 76.2084L144.025 87.043L142.164 94.3992L140.303 97.3776L138.443 95.5412L136.582 88.9788L134.721 78.3053L132.861 64.5996L131 49.2858L129.139 33.972L127.279 20.2663L125.418 9.59274L123.557 3.03033L121.697 1.19401L119.836 4.17238L117.975 11.5286L116.114 22.3631L114.254 35.4293L112.393 49.2858L110.532 62.4665L108.672 73.6464L106.811 81.7837L104.95 86.2215L103.09 86.7397L101.229 83.5527L99.3682 77.257L97.5075 68.7381L95.6468 59.0503L93.7861 49.2858L91.9254 40.4505L90.0647 33.3596L88.204 28.5642L86.3434 26.316L84.4827 26.5688L82.622 29.015L80.7613 33.1478L78.9006 38.3399L77.0399 43.9269L75.1792 49.2858L73.3185 53.8982L71.4578 57.3947L69.5971 59.5758L67.7364 60.4106L65.8757 60.0165L64.015 58.6246L62.1543 56.5371L60.2936 54.0827L58.4329 51.5762L56.5723 49.2858L54.7116 47.4105L52.8509 46.0703L50.9902 45.3062L49.1295 45.0896L47.2688 45.3382L45.4081 45.9351L43.5474 46.7483L41.6867 47.6486L39.826 48.5234L37.9653 49.2858L36.1046 49.8796L34.2439 50.2788L32.3832 50.4844L30.5225 50.5184L28.6618 50.4168L26.8011 50.2221L24.9405 49.9773L23.0798 49.7209L21.2191 49.4834L19.3584 49.2858L17.4977 49.1394L15.637 49.047L13.7763 49.0046L11.9156 49.0038L10.0549 49.0334L8.19421 49.082L6.33353 49.139L4.47282 49.1957L2.61214 49.2459L0.75143 49.2858" stroke="#100D40" stroke-width="1.5" stroke-linecap="round"/>
</svg>
