<svg width="32" height="32" viewBox="0 0 32 32" fill="none" xmlns="http://www.w3.org/2000/svg">
<rect x="24.4197" y="3.34021" width="23.7782" height="9.66917" transform="rotate(90 24.4197 3.34021)" fill="#100D40"/>
<rect x="30.8405" y="3.34021" width="23.7782" height="5.62043" transform="rotate(90 30.8405 3.34021)" fill="#100D40"/>
<rect x="22.7667" y="5.4574" width="3.15847" height="0.902422" transform="rotate(90 22.7667 5.4574)" fill="white"/>
<rect x="6.72314" y="14.9701" width="11.8997" height="6.91903" fill="#100D40"/>
<rect width="11.784" height="6.0271" rx="3.01355" transform="matrix(0.262316 0.964982 0.964982 -0.262316 16.3047 17.2885)" fill="#100D40"/>
<rect x="10.0669" y="17.2885" width="11.784" height="6.0271" rx="3.01355" transform="rotate(105.208 10.0669 17.2885)" fill="#100D40"/>
<circle cx="19.0092" cy="18.412" r="3.78626" fill="#100D40"/>
<circle cx="3.78626" cy="3.78626" r="3.78626" transform="matrix(-1 0 0 1 11.0503 14.6257)" fill="#100D40"/>
<rect x="6.40845" y="16.687" width="0.806322" height="2.64934" fill="white"/>
<rect x="8.13623" y="17.6086" width="0.921511" height="2.64934" transform="rotate(90 8.13623 17.6086)" fill="white"/>
<circle cx="19.3731" cy="16.9783" r="0.547293" fill="white"/>
<circle cx="19.3731" cy="19.0457" r="0.547293" fill="white"/>
<circle cx="20.4676" cy="18.0729" r="0.547293" fill="white"/>
<circle cx="18.2785" cy="18.0729" r="0.547293" fill="white"/>
<circle cx="9.75302" cy="21.8904" r="2.10251" fill="white"/>
<circle cx="9.75308" cy="21.8892" r="1.42642" fill="#100D40"/>
<circle cx="16.1504" cy="21.8891" r="2.10251" fill="white"/>
<circle cx="16.1503" cy="21.8891" r="1.42642" fill="#100D40"/>
<rect x="9.42139" y="15.7076" width="7.0605" height="3.55444" fill="white"/>
</svg>
