<svg width="48" height="48" viewBox="0 0 48 48" fill="none" xmlns="http://www.w3.org/2000/svg">
<path d="M48 23.9718C48 30.5556 45.3552 36.5205 41.0222 40.8534C38.2086 43.7233 34.6072 45.8616 30.6119 47.0433C28.4736 47.6623 26.279 47.9999 23.9718 47.9999C21.8898 47.9999 19.9203 47.7186 18.007 47.2684C14.4056 46.3118 11.0856 44.5674 8.32824 42.2039C3.20749 37.8147 0 31.2872 0 24.0281C0 10.7479 10.7479 0 24.0281 0C37.3083 0 48 10.7479 48 23.9718Z" fill="#BCC3FF"/>
<path d="M32.9197 25.9976C32.9197 25.9976 33.4824 23.2402 33.2573 18.6822C32.7508 8.66582 28.5305 8.94718 26.3359 8.72209C22.0029 8.21564 20.0897 10.5791 20.0897 10.5791C16.5445 11.5357 16.4883 25.9413 16.4883 25.9413C18.4578 26.5603 21.3839 27.2356 24.9291 27.1793C28.2491 27.1793 31.0064 26.5603 32.9197 25.9976Z" fill="#5A281D"/>
<path d="M18.007 47.2685C19.9203 47.7749 21.946 48 23.9718 48C26.279 48 28.5299 47.6624 30.6119 47.0434C33.8757 46.0867 36.8018 44.5111 39.3341 42.3728L38.2086 34.7761C37.871 32.3564 36.3517 30.4994 34.4947 29.993L28.8112 28.5299L27.1793 28.136L24.0281 27.3482L21.6647 27.8546L19.4138 28.3611L15.2497 29.3177C13.2802 29.7679 11.7608 31.6811 11.4232 34.1571L10.0727 43.5545C12.4361 45.2427 15.1372 46.4807 18.007 47.2685Z" fill="#BB5A39"/>
<path opacity="0.3" d="M39.2781 41.6975C38.8842 41.3599 38.4903 41.0222 38.1527 40.572C36.8022 38.8839 36.1832 36.5205 36.4083 34.1008C36.971 34.0445 37.5337 33.9882 38.0401 33.9882C37.9839 33.8194 37.9276 33.5943 37.8713 33.4255C37.4212 33.4255 36.971 33.4818 36.4645 33.5381V33.4818C36.5771 32.8628 36.6896 32.3001 36.8585 31.6811C36.7459 31.5123 36.5771 31.3435 36.4083 31.1746C36.1832 31.9062 35.9581 32.6377 35.8455 33.3692C35.8455 33.4255 35.8455 33.5381 35.7893 33.5943C34.5513 33.8194 33.3133 34.2133 32.0753 34.776C29.4306 35.9578 27.1797 37.8147 25.4352 40.1219C25.3227 40.0093 25.1539 39.9531 24.9851 39.8968C21.1586 37.7585 16.2629 37.871 12.4927 40.1219C11.6486 40.6283 10.8608 41.3036 10.1293 41.9788L9.96046 42.9917C10.7483 42.0914 11.7049 41.2473 12.7741 40.6283C16.3755 38.4337 21.046 38.3774 24.7037 40.4032C24.8163 40.4595 24.9288 40.5158 25.0413 40.6283C23.4657 42.8229 22.3403 45.3552 21.8901 47.9437C22.0589 47.9437 22.284 47.9999 22.4528 47.9999C22.9593 45.4677 24.0284 43.048 25.5478 40.9097C27.7424 42.3728 29.4305 44.6236 30.2184 47.1559C30.3309 47.1559 30.3872 47.0996 30.4997 47.0996C30.6123 47.0996 30.6685 47.0433 30.7811 47.0433C29.937 44.3985 28.1926 42.0351 25.8854 40.5158C27.5736 38.3212 29.7682 36.5205 32.2441 35.395C33.3696 34.8886 34.5513 34.4947 35.6767 34.2696C35.4516 36.8018 36.1269 39.1653 37.5337 40.966C37.9839 41.5849 38.5466 42.0914 39.1656 42.4853C39.1656 42.4853 39.1656 42.4853 39.2219 42.4853L39.2781 41.6975Z" fill="white"/>
<path opacity="0.3" d="M13.5053 35.2826C12.7738 35.9015 11.9297 36.4643 11.0293 36.9144L10.9168 37.5897C11.986 37.0833 12.9426 36.4643 13.8429 35.6765C14.5745 35.0575 15.1935 34.3822 15.6436 33.6507C16.1501 33.8758 16.7128 34.0446 17.2192 34.1571C22.0024 35.2263 27.2356 33.5944 30.4994 29.993C30.7245 29.7116 31.0059 29.4303 31.1747 29.1489L30.5557 28.9801C30.3869 29.2052 30.2181 29.374 30.0493 29.5991C26.898 33.0879 21.8898 34.6636 17.2755 33.5944C16.8253 33.4819 16.3189 33.313 15.8687 33.1442C16.0375 32.8629 16.1501 32.5815 16.2626 32.2439C16.6565 31.1184 16.6565 29.993 16.3752 28.9801L15.8124 29.0926C16.0938 29.993 16.0938 31.0059 15.7562 32.0188C15.6436 32.3001 15.5311 32.5815 15.3623 32.8629C14.2931 32.3001 13.3928 31.5123 12.9426 30.5557C12.7738 30.7245 12.6612 30.8933 12.5487 31.0622C13.1114 32.0188 14.0117 32.8066 15.0809 33.313C14.7433 34.1008 14.1806 34.7198 13.5053 35.2826Z" fill="white"/>
<path d="M21.8336 21.4396L21.3272 28.9238C21.2709 29.4865 21.6648 29.993 22.1713 30.1618C22.8465 30.3306 23.7469 30.4994 24.7598 30.4432C25.4913 30.3869 26.1666 30.2743 26.673 30.1618C27.2357 29.993 27.5734 29.4865 27.5734 28.9238L27.0669 21.4396H21.8336Z" fill="#F79387"/>
<path d="M21.834 21.4396L21.4964 25.8851C22.6781 26.4478 24.9852 27.1794 27.2924 25.4349L27.0673 22.0586C26.6734 21.8335 26.2795 21.6084 25.8293 21.3834H21.834V21.4396Z" fill="#D6735C"/>
<path d="M19.5835 13.9553C19.5835 13.9553 18.458 19.0198 20.0336 22.4524C21.553 25.7724 24.3666 25.7162 25.2107 25.6036C26.0547 25.5474 31.2318 24.9846 29.6561 14.1804C29.6561 14.2367 21.8343 14.4055 19.5835 13.9553Z" fill="#F79387"/>
<path d="M19.3014 16.9941C19.3014 16.9941 21.0458 15.8124 21.8899 14.4056C21.8899 14.4056 24.197 16.9378 29.9368 17.1629C29.9368 17.1629 29.993 14.9683 29.6554 13.674C29.3178 12.3798 19.4702 13.2801 19.4702 13.2801C19.4702 13.2801 18.5698 16.0937 19.3014 16.9941Z" fill="#5A281D"/>
<path d="M19.8226 19.8808C20.5066 19.5123 20.6788 18.5039 20.2072 17.6283C19.7356 16.7528 18.7988 16.3417 18.1148 16.7101C17.4308 17.0785 17.2585 18.087 17.7301 18.9625C18.2017 19.8381 19.1385 20.2492 19.8226 19.8808Z" fill="#F79387"/>
<path d="M31.7405 18.9398C32.2121 18.0642 32.0399 17.0558 31.3559 16.6873C30.6719 16.3189 29.7351 16.73 29.2635 17.6056C28.7919 18.4811 28.9641 19.4896 29.6481 19.858C30.3321 20.2264 31.269 19.8153 31.7405 18.9398Z" fill="#F79387"/>
<path d="M18.7385 20.4267C18.9871 20.4267 19.1887 20.2252 19.1887 19.9765C19.1887 19.7279 18.9871 19.5263 18.7385 19.5263C18.4899 19.5263 18.2883 19.7279 18.2883 19.9765C18.2883 20.2252 18.4899 20.4267 18.7385 20.4267Z" fill="white"/>
<path d="M30.3874 20.4267C30.636 20.4267 30.8375 20.2252 30.8375 19.9765C30.8375 19.7279 30.636 19.5263 30.3874 19.5263C30.1388 19.5263 29.9372 19.7279 29.9372 19.9765C29.9372 20.2252 30.1388 20.4267 30.3874 20.4267Z" fill="white"/>
<path opacity="0.3" d="M16.4318 46.7619L16.2068 35.2824L14.2935 45.9178C15.025 46.2554 15.7003 46.5368 16.4318 46.7619Z" fill="#4A1300"/>
<path opacity="0.3" d="M34.0446 35.3387L34.2134 45.749C34.8886 45.4113 35.6202 45.0737 36.2392 44.6235L34.0446 35.3387Z" fill="#4A1300"/>
</svg>
