<svg width="129" height="196" viewBox="0 0 129 196" fill="none" xmlns="http://www.w3.org/2000/svg">
<rect x="35.4781" y="36.5119" width="23.283" height="100.117" rx="11.5958" fill="#FEC478"/>
<rect x="58.7611" y="72.6004" width="23.283" height="64.0282" rx="11.5958" fill="#FEC478"/>
<rect x="82.044" y="77.2571" width="23.283" height="59.3716" rx="11.5958" fill="#FEB756"/>
<rect x="105.327" y="87.7345" width="23.283" height="48.8942" rx="11.5958" fill="#FEB756"/>
<rect x="-5.26712" y="104.65" width="25.6113" height="84.8177" rx="12.7554" transform="rotate(-41.3379 -5.26712 104.65)" fill="#FEC478"/>
<path d="M35.4781 106.361H82.044V168.061H64.6876C48.5556 168.061 35.4781 154.983 35.4781 138.851V106.361Z" fill="#FEC478"/>
<path d="M82.044 106.361H128.61V138.851C128.61 154.983 115.532 168.061 99.4004 168.061H82.044V106.361Z" fill="#FEB756"/>
<path d="M50.612 150.598H83.2081V196H62.7826C56.061 196 50.612 190.551 50.612 183.829V150.598Z" fill="#FEC478"/>
<path d="M82.6261 150.598H115.804V183.829C115.804 190.551 110.355 196 103.634 196H82.6261V150.598Z" fill="#FEB756"/>
<rect x="67.0121" y="35.4952" width="23.3102" height="9.536" rx="4.7493" fill="#9778F1"/>
<rect x="3.96839" y="34.4356" width="23.3102" height="9.536" rx="4.7493" fill="#9778F1"/>
<rect x="42.1124" y="23.3102" width="23.3102" height="10.0658" rx="5.01315" transform="rotate(-90 42.1124 23.3102)" fill="#9778F1"/>
<rect x="29.6315" y="30.1586" width="23.4882" height="9.67162" rx="4.81684" transform="rotate(-136.246 29.6315 30.1586)" fill="#B68DFF"/>
<rect width="23.3961" height="9.63369" rx="4.81684" transform="matrix(0.725165 -0.694282 -0.694282 -0.725165 63.8507 30.1377)" fill="#B68DFF"/>
</svg>
