<svg width="32" height="32" viewBox="0 0 32 32" fill="none" xmlns="http://www.w3.org/2000/svg">
<ellipse cx="6.5" cy="24.4967" rx="4.5" ry="4.50339" fill="#100D40"/>
<rect x="5.62329" y="22.328" width="1.42029" height="4.67018" rx="0.710145" fill="white"/>
<rect x="8.66687" y="23.9958" width="1.33434" height="4.66666" rx="0.667168" transform="rotate(90 8.66687 23.9958)" fill="white"/>
<path d="M24 17.3245C24 16.0348 25.0455 14.9894 26.3351 14.9894H29V19.6596H26.3351C25.0455 19.6596 24 18.6141 24 17.3245Z" fill="#FEC478"/>
<rect width="16.9581" height="5.15331" rx="1" transform="matrix(0.95907 -0.28317 0.282778 0.959185 6.47937 7.80212)" fill="#100D40"/>
<path fill-rule="evenodd" clip-rule="evenodd" d="M26.9999 7.65063C28.1045 7.65063 28.9999 8.54607 28.9999 9.65063V13.655H26.3361C24.3095 13.655 22.6666 15.2979 22.6666 17.3244C22.6666 19.351 24.3095 20.9939 26.3361 20.9939H28.9999V25.3321C28.9999 26.4367 28.1045 27.3321 26.9999 27.3321H15.1003C13.6488 27.3321 12.6666 25.4476 12.6666 23.996C12.6666 21.0483 10.2788 18.6587 7.33327 18.6587C6.498 18.6587 5.66656 18.0649 5.66656 17.2296V9.65064C5.66656 8.54607 6.562 7.65063 7.66657 7.65063H26.9999Z" fill="#9C7AF1"/>
</svg>
