<svg width="48" height="48" viewBox="0 0 48 48" fill="none" xmlns="http://www.w3.org/2000/svg">
<path d="M0 24.0844C0 29.7678 1.97415 35.0011 5.302 39.1652C6.82491 41.0785 8.62985 42.7104 10.6604 44.0609C10.9424 44.286 11.2808 44.4548 11.5629 44.6236C13.0294 45.524 14.5523 46.1992 16.188 46.762C16.3572 46.8182 16.5828 46.8745 16.8085 46.9308C17.3161 47.0996 17.8237 47.2121 18.3314 47.3247C18.5006 47.3809 18.7262 47.4372 18.8954 47.4372C20.5311 47.7748 22.2797 47.9999 24.0282 47.9999C24.6487 47.9999 25.2691 47.9999 25.8895 47.9437C26.0588 47.9437 26.1716 47.8874 26.3408 47.8874C28.5969 47.6623 30.7403 47.1559 32.7709 46.3681C32.9965 46.2555 33.2221 46.1992 33.3913 46.0867C34.0681 45.8053 34.8014 45.4677 35.4219 45.1301C35.5911 45.0175 35.7603 44.905 35.9295 44.8487C35.9295 44.8487 35.9859 44.8487 35.9859 44.7924C36.1551 44.6799 36.3807 44.5674 36.5499 44.4548C38.4677 43.2731 40.1598 41.8663 41.6827 40.2344C41.7391 40.1782 41.7391 40.1219 41.7955 40.1219C45.631 35.8452 48 30.218 48 24.0281C48 10.7479 37.2268 0 23.9154 0C10.604 0 0 10.8042 0 24.0844Z" fill="#BCC3FF"/>
<path d="M33.8982 42.4292L35.5339 45.1865C35.7031 45.074 35.8723 44.9614 36.0415 44.9052C36.0415 44.9052 36.098 44.9052 36.098 44.8489C36.2672 44.7364 36.4928 44.6238 36.662 44.5113C38.5797 43.3296 40.2719 41.9228 41.7948 40.2909L41.5128 39.7844L36.7748 41.4163L35.4211 41.8665L34.3494 42.2604L33.8982 42.4292Z" fill="#943E29"/>
<path d="M31.7551 38.4334L34.3497 42.2599L34.5753 42.5975L36.0982 44.8484C36.2674 44.7358 36.4931 44.6233 36.6623 44.5107C38.58 43.329 40.2721 41.9222 41.7951 40.2903C41.8515 40.2341 41.8515 40.1778 41.9079 40.1778L40.4414 37.7018L37.0007 32.0184L36.9443 31.9058L36.7751 31.6245C36.7187 31.5119 36.6623 31.4557 36.5495 31.3431L36.4931 31.2868C36.2674 31.0618 35.9854 30.8929 35.647 30.7804C35.5906 30.7804 35.5342 30.7241 35.4778 30.7241C35.365 30.7241 35.2522 30.7241 35.1394 30.7241C34.3497 30.7241 33.6165 31.1743 33.3344 31.9621L32.2627 34.7757L31.9243 35.6198L31.5295 36.6889C31.3039 37.2517 31.4167 37.9269 31.7551 38.4334Z" fill="#A79F58"/>
<path d="M9.58898 31.9619L10.2094 38.8271L10.2658 39.3336L10.4914 41.697L10.7171 44.0604C10.9991 44.2855 11.3375 44.4543 11.6195 44.6231C13.086 45.5235 14.609 46.1987 16.2447 46.7615C16.4139 46.8177 16.6395 46.874 16.8651 46.9303C17.3728 47.0991 17.8804 47.2116 18.388 47.3242C18.5573 47.3804 18.7829 47.4367 18.9521 47.4367C20.5878 47.7744 22.3363 47.9994 24.0849 47.9994C24.7053 47.9994 25.3258 47.9994 25.9462 47.9432C26.1154 47.9432 26.2282 47.8869 26.3974 47.8869C28.6536 47.6618 30.797 47.1554 32.8275 46.3676C33.0531 46.255 33.2788 46.1987 33.448 46.0862C34.1248 45.8048 34.8581 45.4672 35.4785 45.1296C35.6477 45.017 35.8169 44.9045 35.9862 44.8482C35.9862 44.8482 36.0426 44.8482 36.0426 44.7919C36.2118 44.6794 36.4374 44.5669 36.6066 44.4543L36.7194 41.3594V40.6841L37.0578 32.8623C37.0578 32.6935 37.0578 32.4684 37.0014 32.2996C37.0014 32.2996 37.0014 32.2996 37.0014 32.2433C37.0014 32.187 36.945 32.1308 36.945 32.0745C36.945 32.0182 36.945 32.0182 36.8886 31.9619C36.8886 31.9619 36.8886 31.9057 36.8322 31.9057C36.7194 31.6806 36.6066 31.5118 36.4374 31.343L36.381 31.2867C36.1554 31.0616 35.8733 30.8928 35.5349 30.7802L35.3657 30.724L27.1871 28.3043L24.7053 27.5727L24.1977 27.4602L23.3516 27.2351L20.5314 27.8541L18.6137 28.248L18.106 28.3605L11.2247 29.8236C11.0555 29.8799 10.8299 29.9362 10.6607 29.9924C9.98381 30.2738 9.53257 31.0616 9.58898 31.9619Z" fill="#A79F58"/>
<path d="M5.30273 39.1087C6.82565 41.022 8.63058 42.6538 10.6611 44.0044C10.9432 44.2295 11.2816 44.3983 11.5636 44.5671L12.2969 42.7101L13.8198 38.9399L14.0454 38.3772L15.2863 35.2822C16.1323 33.2564 15.1735 30.893 13.1429 29.9927C12.5789 29.7676 12.0712 29.655 11.5072 29.655C11.2252 29.655 10.8868 29.7113 10.6047 29.7676C9.30744 30.0489 8.17935 31.0056 7.67171 32.3561L5.30273 38.7148V39.1087Z" fill="#A79F58"/>
<path d="M29.8939 14.969C29.8939 14.969 32.0937 13.7873 31.7553 12.2117C31.4169 10.6361 23.7459 8.38524 20.7001 11.03C20.7001 11.03 18.4439 10.6924 19.4028 17.2762C20.3616 23.8037 28.7659 18.5142 28.7659 18.5142" fill="#41180F"/>
<path d="M30.2886 13.2241C30.2886 13.2241 33.0524 23.128 26.6787 24.8161L27.5812 30.2182C27.694 30.7247 27.3556 31.2311 26.8479 31.3999C25.6071 31.7938 23.1817 32.1878 20.7563 30.0494C20.4743 29.8243 20.3615 29.4867 20.4179 29.1491C20.6435 27.686 21.1511 23.4656 20.9255 20.8208C20.9255 20.8208 18.3309 20.7646 18.5001 18.4574C18.6693 16.1503 20.4743 16.3753 21.4895 17.8947C21.4895 17.8947 22.6176 16.2628 22.2792 13.5617C22.2228 13.5617 27.0736 14.3496 30.2886 13.2241Z" fill="#943E29"/>
<path d="M26.6791 24.8161C26.6791 24.8161 24.3665 25.0412 23.3512 23.2405C23.3512 23.2405 22.8436 25.829 26.9047 26.1666L26.6791 24.8161Z" fill="#5A281D"/>
<path d="M29.9234 39.7844H19.1771V42.968H29.9234V39.7844Z" fill="white"/>
<circle cx="40" cy="40" r="8" fill="#100D40"/>
<path d="M39.3644 42.3913L37.3333 42.8224L37.7644 40.7913C37.7955 40.6446 37.8666 40.5113 37.9733 40.4046L40.8177 37.5602C41.1199 37.2579 41.6088 37.2579 41.911 37.5602L42.591 38.2402C42.8933 38.5424 42.8933 39.0313 42.591 39.3335L39.7466 42.1779C39.6444 42.2846 39.511 42.3602 39.3644 42.3913Z" stroke="white" stroke-width="0.8" stroke-miterlimit="10" stroke-linecap="round" stroke-linejoin="round"/>
</svg>
