<svg width="32" height="32" viewBox="0 0 32 32" fill="none" xmlns="http://www.w3.org/2000/svg">
<path d="M22.0734 17.0899L26.2441 13.4159C26.833 12.8963 27.7039 12.8592 28.3295 13.3293C29.0655 13.8859 29.225 14.9374 28.6607 15.6796C27.2991 17.4981 24.7721 20.7392 22.5886 22.8669C22.1102 23.3246 21.4969 23.5967 20.8467 23.6586L11.6666 24.591" fill="#FEC478"/>
<path d="M18.5734 18.7064H7.03638L10.0251 25.2282L20.329 20.989L20.9142 20.1738L20.5798 19.114L19.8274 18.7064H18.5734Z" fill="#FEC478" stroke="#FEC478"/>
<path d="M7.5614 19.019C7.5614 19.019 8.67917 15.8207 11.4239 15.7311C13.2372 15.6799 14.3798 16.1533 14.9387 16.4859C15.2864 16.6906 15.6963 16.7802 16.1061 16.7802H21.0119C21.8937 16.7802 22.614 17.5222 22.614 18.4305C22.614 19.3261 21.9309 20.0553 21.0616 20.0809L15.5597 20.2728" fill="#FEC478"/>
<path d="M7.5614 19.019C7.5614 19.019 8.67917 15.8207 11.4239 15.7311C13.2372 15.6799 14.3798 16.1533 14.9387 16.4859C15.2864 16.6906 15.6963 16.7802 16.1061 16.7802H21.0119C21.8937 16.7802 22.614 17.5222 22.614 18.4305C22.614 19.3261 21.9309 20.0553 21.0616 20.0809L15.5597 20.2728" stroke="#FEB756" stroke-width="0.8" stroke-miterlimit="10" stroke-linecap="round" stroke-linejoin="round"/>
<path d="M11.6209 26.427L9.58271 27.9472C9.46947 28.0352 9.3185 28.0101 9.23043 27.897L3.05296 19.6675C2.96489 19.5544 2.99005 19.4037 3.10328 19.3157L5.14147 17.7955C5.69505 17.3809 6.48768 17.4939 6.90287 18.0468L11.8725 24.668C12.2877 25.2334 12.1745 26.0124 11.6209 26.427Z" fill="#9377F0" stroke="#9377F0" stroke-miterlimit="10" stroke-linecap="round" stroke-linejoin="round"/>
<path d="M18.8291 5.17084C17.2671 3.60972 14.7308 3.60972 13.1687 5.17084C11.9237 6.41513 11.6758 8.27005 12.4136 9.76204L12.2292 11.2425C12.1946 11.5478 12.4482 11.8013 12.7537 11.7667L14.2293 11.5882C15.7223 12.3255 17.5841 12.072 18.8234 10.8335C20.3912 9.26663 20.3912 6.73197 18.8291 5.17084Z" fill="#100D40"/>
<path d="M16.1867 7.57691V6.68244C16.3692 6.71259 16.5421 6.79299 16.6862 6.91359C16.715 6.93369 16.7534 6.94374 16.7822 6.94374C16.8975 6.94374 16.984 6.84324 16.9936 6.73269C16.9936 6.68244 16.9744 6.63219 16.9359 6.59198C16.7246 6.40103 16.4556 6.29048 16.1771 6.27038V5.96887C16.1771 5.88847 16.1098 5.81812 16.033 5.81812C16.033 5.81812 16.033 5.81812 16.0234 5.81812C15.9369 5.81812 15.8697 5.88847 15.8697 5.96887V6.26033C15.3221 6.30053 14.9571 6.65229 14.9571 7.1146C14.9571 7.68746 15.4182 7.84827 15.8697 7.96887V8.97389C15.6295 8.94374 15.4086 8.84324 15.2261 8.68244C15.1876 8.65229 15.1492 8.64224 15.1012 8.63219C14.9859 8.64224 14.9091 8.73269 14.9091 8.85329C14.9091 8.90354 14.9283 8.95379 14.9667 8.99399C15.2165 9.22515 15.5335 9.36585 15.8697 9.3759V9.65731C15.8697 9.65731 15.8697 9.65731 15.8697 9.66736C15.8697 9.75781 15.9465 9.81812 16.0234 9.81812C16.1002 9.81812 16.1675 9.74776 16.1675 9.66736V9.38595C16.8303 9.3357 17.0896 8.92364 17.0896 8.48143C17.1185 7.87842 16.6382 7.69751 16.1867 7.57691ZM15.8889 7.49651C15.6295 7.41611 15.4182 7.3357 15.4182 7.0945C15.4182 6.86334 15.6007 6.69249 15.8889 6.67239V7.49651ZM16.1867 8.99399V8.07942C16.4556 8.15982 16.667 8.27038 16.667 8.53168C16.6766 8.72264 16.5517 8.95379 16.1867 8.99399Z" fill="white"/>
</svg>
