<svg width="48" height="48" viewBox="0 0 48 48" fill="none" xmlns="http://www.w3.org/2000/svg">
<path d="M48 24C48 30.5761 45.3552 36.5339 41.0223 40.8618C38.2087 43.7283 34.6073 45.8642 30.612 47.0445C28.4736 47.6627 26.279 48 23.9719 48C21.8898 48 19.9203 47.719 18.007 47.2693C14.4056 46.3138 11.0856 44.5714 8.32825 42.2108C3.2075 37.8267 0 31.3068 0 24.0562C0 10.7354 10.748 0 24.0281 0C37.3083 0 48 10.7354 48 24Z" fill="#F2F2F2"/>
<circle cx="34.506" cy="29.7317" r="3.94207" fill="#100D40"/>
<circle cx="34.5062" cy="29.732" r="1.9898" fill="#9F99AA"/>
<circle cx="34.5061" cy="29.7319" r="1.28895" fill="#100D40"/>
<rect x="30.8081" y="22.4326" width="1.55388" height="8.47599" rx="0.776938" transform="rotate(-21.7205 30.8081 22.4326)" fill="#100D40"/>
<rect x="9" y="21.2146" width="1.70415" height="2.84067" rx="0.5" fill="#FF552F"/>
<path d="M9.70935 21.6357C9.70935 21.0835 10.1571 20.6357 10.7094 20.6357H14.3507V25.259H10.7093C10.1571 25.259 9.70935 24.8113 9.70935 24.259V21.6357Z" fill="#100D40"/>
<path fill-rule="evenodd" clip-rule="evenodd" d="M30.2147 22.0647C30.1793 21.8697 28.8836 18.9041 28.2402 17.4457L29.607 16.6559L31.0376 17.4102L32.8865 21.9417C32.9318 21.9476 33.1276 21.9784 33.5484 22.054C34.0745 22.1486 35.2143 22.6619 36.3425 23.3218C37.2449 23.8497 38.1026 25.175 38.4186 25.7717C38.4155 25.7874 38.4118 25.805 38.4076 25.8241C38.4335 25.8876 38.4478 25.9572 38.4478 26.0301C38.4478 26.3312 38.2037 26.5753 37.9026 26.5753C37.8167 26.5753 37.7353 26.5554 37.663 26.52C37.6466 26.5189 37.6328 26.5182 37.6222 26.5182C37.6199 26.5182 37.6173 26.5179 37.6146 26.5173C36.7935 25.7149 35.6703 25.2204 34.4316 25.2204C32.4392 25.2204 30.7456 26.4997 30.1275 28.2817C30.056 28.4198 29.972 28.5801 29.8683 28.7703C29.492 29.4601 28.5903 29.6676 28.1864 29.6851H25.5404H12.5609C11.9795 29.6826 10.6979 29.6595 10.2228 29.5874C9.74765 29.5152 9.64437 29.0158 9.65213 28.7751L9.75137 26.2606C9.75478 26.2353 9.75801 26.2113 9.76109 26.1884C9.79398 25.9439 9.8098 25.8263 9.84033 25.7127C9.86861 25.6075 9.9095 25.5057 9.98826 25.3096C10.0828 25.0743 10.2319 24.7031 10.4792 24.0273C11.3255 21.7144 13.7346 20.4542 14.8163 20.1069L16.0708 19.8253L22.5721 20.5532C22.051 21.8842 21.1218 24.8608 21.5738 26.1193C22.0258 27.3777 23.0545 27.685 23.5123 27.6813C24.0145 27.6997 25.1718 27.7256 25.7833 27.6813C26.4521 27.6328 27.3584 27.4062 27.6414 27.3355C27.6818 27.3254 27.7095 27.3185 27.722 27.3157C27.8217 27.2935 29.4169 26.1747 29.9929 25.0669C30.5615 23.9735 30.2667 22.3513 30.2165 22.0749L30.2147 22.0647Z" fill="#100D40"/>
<circle cx="16.5087" cy="29.7317" r="3.94207" fill="#100D40"/>
<circle cx="16.5088" cy="29.732" r="1.9898" fill="#9F99AA"/>
<circle cx="16.5088" cy="29.7319" r="1.28895" fill="#100D40"/>
<path fill-rule="evenodd" clip-rule="evenodd" d="M21.4014 26.3516C21.6675 26.9941 21.8045 27.6827 21.8045 28.3782H21.8043C21.804 28.9832 20.7955 29.1345 20.2912 29.1345H19.3308L19.3166 29.1345H12.7258C12.2215 29.1345 11.2128 28.9832 11.2128 28.378C11.2128 28.3702 11.2129 28.3624 11.213 28.3548C11.2161 27.6673 11.3529 26.9869 11.6161 26.3516C11.8822 25.709 12.2723 25.1252 12.7641 24.6335C13.2558 24.1417 13.8396 23.7517 14.4821 23.4855C15.1246 23.2194 15.8133 23.0824 16.5087 23.0824C17.2042 23.0824 17.8928 23.2194 18.5353 23.4855C19.1778 23.7517 19.7616 24.1417 20.2534 24.6335C20.7452 25.1252 21.1352 25.709 21.4014 26.3516Z" fill="#100D40"/>
<path d="M27.874 17.4681L31.4964 17.4215C31.5814 17.4215 31.7729 17.4086 31.858 17.3571C31.9431 17.3056 32.0602 17.1693 32.1082 17.1075C32.1934 16.9998 32.3638 16.6535 32.3638 16.1302C32.3638 15.4761 31.9428 15.01 31.5969 14.5514C31.3203 14.1845 30.8913 14.0585 30.7114 14.0414L30.073 14C29.947 14 29.6345 14.0284 29.3933 14.1419C29.0919 14.2837 28.7597 14.5826 28.3842 14.7632C28.0837 14.9076 27.6709 15.1264 27.502 15.2176L27.2538 15.4245L27.0587 15.8264C27.0883 16.1712 27.1947 16.9151 27.3838 17.1326C27.5729 17.3501 27.7894 17.4469 27.874 17.4681Z" fill="#100D40"/>
<path fill-rule="evenodd" clip-rule="evenodd" d="M14.8085 20.6358H21.9731L21.9781 20.6122C22.0529 20.6274 22.1304 20.6353 22.2097 20.6353C22.8501 20.6353 23.3693 20.1162 23.3693 19.4758C23.3693 18.9205 22.979 18.4564 22.4578 18.3428L22.4582 18.3409L16.3524 17.1182C16.3423 17.1192 16.3321 17.1202 16.3218 17.1213C15.7799 17.1762 15.1118 17.2439 14.3421 18.3409C14.3377 18.3471 14.3331 18.3536 14.3282 18.3605C14.1709 18.5833 13.7661 19.1566 14.1183 19.9457C14.2346 20.2062 14.4806 20.3853 14.6512 20.5094C14.7208 20.5601 14.7779 20.6016 14.8085 20.6358Z" fill="#100D40"/>
<circle cx="28.2493" cy="16.1195" r="0.642956" fill="#100D40"/>
<path d="M28.0634 15.5112L26.769 15.99L27.1178 17.0066L28.5481 16.6933L28.0634 15.5112Z" fill="#100D40"/>
<circle cx="26.8669" cy="16.5179" r="0.546419" fill="#100D40"/>
<circle cx="26.8668" cy="16.5179" r="0.36067" fill="#806D80"/>
<path fill-rule="evenodd" clip-rule="evenodd" d="M31.7753 17.3894C30.9949 16.906 30.4751 16.0419 30.4751 15.0565C30.4751 14.6968 30.5443 14.3533 30.6702 14.0386L30.7114 14.0412C30.8913 14.0584 31.3202 14.1843 31.5969 14.5512C31.6347 14.6013 31.6734 14.6515 31.7123 14.702C32.0297 15.1139 32.3638 15.5474 32.3638 16.1301C32.3638 16.6533 32.1933 16.9997 32.1081 17.1074C32.0602 17.1692 31.9431 17.3055 31.858 17.357C31.8362 17.3702 31.8074 17.3808 31.7753 17.3894Z" fill="#FFD040"/>
</svg>
