<svg width="282" height="222" viewBox="0 0 282 222" fill="none" xmlns="http://www.w3.org/2000/svg">
<path d="M181.858 131.818L210.712 105.781C214.786 102.099 220.811 101.836 225.139 105.168C230.231 109.112 231.334 116.564 227.431 121.824C218.011 134.711 200.528 157.679 185.422 172.757C182.112 176.001 177.869 177.93 173.371 178.368L109.86 184.975" fill="#FEC478"/>
<path d="M157.643 143.274H77.8267L98.5038 189.492L169.789 159.45L173.838 153.673L171.524 146.163L166.319 143.274H157.643Z" fill="#FEC478" stroke="#FEC478" stroke-width="3"/>
<path d="M81.4584 145.489C81.4584 145.489 89.1915 122.823 108.181 122.189C120.725 121.826 128.63 125.18 132.497 127.538C134.903 128.988 137.738 129.623 140.574 129.623H174.513C180.614 129.623 185.597 134.881 185.597 141.318C185.597 147.665 180.872 152.833 174.857 153.014L136.793 154.374" fill="#FEC478"/>
<path d="M81.4584 145.489C81.4584 145.489 89.1915 122.823 108.181 122.189C120.725 121.826 128.63 125.18 132.497 127.538C134.903 128.988 137.738 129.623 140.574 129.623H174.513C180.614 129.623 185.597 134.881 185.597 141.318C185.597 147.665 180.872 152.833 174.857 153.014L136.793 154.374" stroke="#FEB756" stroke-width="3" stroke-miterlimit="10" stroke-linecap="round" stroke-linejoin="round"/>
<path d="M109.543 197.986L95.4425 208.76C94.6591 209.383 93.6146 209.205 93.0053 208.404L50.2676 150.084C49.6583 149.283 49.8324 148.214 50.6157 147.591L64.7166 136.817C68.5464 133.879 74.0301 134.681 76.9025 138.598L111.284 185.521C114.157 189.528 113.373 195.048 109.543 197.986Z" fill="#100D40" stroke="#100D40" stroke-width="3" stroke-miterlimit="10" stroke-linecap="round" stroke-linejoin="round"/>
<path d="M171.921 26.2448C158.253 12.585 136.061 12.585 122.392 26.2448C111.498 37.1324 109.329 53.3629 115.785 66.4178L114.171 79.3719C113.869 82.0434 116.088 84.2613 118.761 83.9588L131.673 82.3963C144.736 88.8481 161.027 86.6303 171.871 75.7932C185.589 62.083 185.589 39.9047 171.921 26.2448Z" fill="#100D40"/>
<path d="M148.8 47.2983V39.4717C150.397 39.7355 151.909 40.439 153.17 41.4943C153.422 41.6702 153.759 41.7581 154.011 41.7581C155.019 41.7581 155.776 40.8787 155.86 39.9114C155.86 39.4717 155.692 39.032 155.356 38.6802C153.507 37.0094 151.153 36.0421 148.715 35.8662V33.228C148.715 32.5245 148.127 31.9089 147.455 31.9089C147.455 31.9089 147.455 31.9089 147.371 31.9089C146.614 31.9089 146.026 32.5245 146.026 33.228V35.7782C141.235 36.13 138.041 39.2079 138.041 43.2531C138.041 48.2657 142.075 49.6727 146.026 50.728V59.5219C143.924 59.2581 141.991 58.3787 140.394 56.9717C140.058 56.7079 139.722 56.6199 139.302 56.532C138.293 56.6199 137.62 57.4114 137.62 58.4667C137.62 58.9064 137.789 59.3461 138.125 59.6978C140.31 61.7204 143.084 62.9516 146.026 63.0395V65.5018C146.026 65.5018 146.026 65.5018 146.026 65.5898C146.026 66.3812 146.698 66.9089 147.371 66.9089C148.043 66.9089 148.631 66.2933 148.631 65.5898V63.1275C154.431 62.6878 156.701 59.0822 156.701 55.2129C156.953 49.9365 152.75 48.3536 148.8 47.2983ZM146.194 46.5948C143.924 45.8913 142.075 45.1878 142.075 43.0772C142.075 41.0546 143.672 39.5596 146.194 39.3838V46.5948ZM148.8 59.6978V51.6953C151.153 52.3988 153.002 53.3662 153.002 55.6526C153.086 57.3234 151.994 59.3461 148.8 59.6978Z" fill="white"/>
<ellipse cx="6.36224" cy="138.075" rx="6.36224" ry="6.35492" fill="#AA80F5"/>
<ellipse cx="184.505" cy="215.645" rx="6.36224" ry="6.35492" fill="#C9BBF8"/>
<ellipse cx="255.068" cy="6.35492" rx="6.36224" ry="6.35492" fill="#AA80F5"/>
<ellipse cx="44.5357" cy="35.2411" rx="6.36224" ry="6.35492" fill="#C9BBF8"/>
<ellipse cx="275.637" cy="161.901" rx="6.36224" ry="6.35492" fill="#8673EF"/>
</svg>
