<svg width="56" height="48" viewBox="0 0 56 48" fill="none" xmlns="http://www.w3.org/2000/svg">
<circle cx="32" cy="24" r="24" fill="#ECE7FF"/>
<path d="M38.0735 25.0899L42.2442 21.4159C42.833 20.8963 43.704 20.8592 44.3296 21.3293C45.0656 21.8859 45.225 22.9374 44.6608 23.6796C43.2992 25.4981 40.7722 28.7392 38.5887 30.8669C38.1103 31.3246 37.4969 31.5967 36.8468 31.6586L27.6667 32.591" fill="#FEC478"/>
<path d="M34.5734 26.7064H23.0364L26.0252 33.2282L36.3291 28.989L36.9143 28.1738L36.5799 27.114L35.8274 26.7064H34.5734Z" fill="#FEC478" stroke="#FEC478"/>
<path d="M23.5614 27.019C23.5614 27.019 24.6792 23.8207 27.4239 23.7311C29.2372 23.6799 30.3798 24.1533 30.9387 24.4859C31.2864 24.6906 31.6963 24.7802 32.1061 24.7802H37.0119C37.8937 24.7802 38.614 25.5222 38.614 26.4305C38.614 27.3261 37.9309 28.0553 37.0616 28.0809L31.5597 28.2728" fill="#FEC478"/>
<path d="M23.5614 27.019C23.5614 27.019 24.6792 23.8207 27.4239 23.7311C29.2372 23.6799 30.3798 24.1533 30.9387 24.4859C31.2864 24.6906 31.6963 24.7802 32.1061 24.7802H37.0119C37.8937 24.7802 38.614 25.5222 38.614 26.4305C38.614 27.3261 37.9309 28.0553 37.0616 28.0809L31.5597 28.2728" stroke="#FEB756" stroke-width="0.8" stroke-miterlimit="10" stroke-linecap="round" stroke-linejoin="round"/>
<path d="M27.6209 34.427L25.5827 35.9472C25.4695 36.0352 25.3185 36.0101 25.2304 35.897L19.053 27.6675C18.9649 27.5544 18.9901 27.4037 19.1033 27.3157L21.1415 25.7955C21.6951 25.3809 22.4877 25.4939 22.9029 26.0468L27.8725 32.668C28.2877 33.2334 28.1745 34.0124 27.6209 34.427Z" fill="#9377F0" stroke="#9377F0" stroke-miterlimit="10" stroke-linecap="round" stroke-linejoin="round"/>
<path d="M34.8291 13.1708C33.2671 11.6097 30.7308 11.6097 29.1687 13.1708C27.9237 14.4151 27.6758 16.27 28.4136 17.762L28.2292 19.2425C28.1946 19.5478 28.4482 19.8013 28.7537 19.7667L30.2293 19.5882C31.7223 20.3255 33.5841 20.072 34.8234 18.8335C36.3912 17.2666 36.3912 14.732 34.8291 13.1708Z" fill="#100D40"/>
<path d="M32.1867 15.5769V14.6824C32.3692 14.7126 32.5422 14.793 32.6862 14.9136C32.7151 14.9337 32.7535 14.9437 32.7823 14.9437C32.8976 14.9437 32.984 14.8432 32.9936 14.7327C32.9936 14.6824 32.9744 14.6322 32.936 14.592C32.7247 14.401 32.4557 14.2905 32.1771 14.2704V13.9689C32.1771 13.8885 32.1099 13.8181 32.033 13.8181C32.033 13.8181 32.033 13.8181 32.0234 13.8181C31.937 13.8181 31.8697 13.8885 31.8697 13.9689V14.2603C31.3222 14.3005 30.9571 14.6523 30.9571 15.1146C30.9571 15.6875 31.4182 15.8483 31.8697 15.9689V16.9739C31.6296 16.9437 31.4086 16.8432 31.2261 16.6824C31.1877 16.6523 31.1493 16.6422 31.1012 16.6322C30.986 16.6422 30.9091 16.7327 30.9091 16.8533C30.9091 16.9035 30.9283 16.9538 30.9668 16.994C31.2165 17.2252 31.5335 17.3659 31.8697 17.3759V17.6573C31.8697 17.6573 31.8697 17.6573 31.8697 17.6674C31.8697 17.7578 31.9466 17.8181 32.0234 17.8181C32.1003 17.8181 32.1675 17.7478 32.1675 17.6674V17.386C32.8303 17.3357 33.0897 16.9236 33.0897 16.4814C33.1185 15.8784 32.6382 15.6975 32.1867 15.5769ZM31.8889 15.4965C31.6296 15.4161 31.4182 15.3357 31.4182 15.0945C31.4182 14.8633 31.6008 14.6925 31.8889 14.6724V15.4965ZM32.1867 16.994V16.0794C32.4557 16.1598 32.667 16.2704 32.667 16.5317C32.6766 16.7226 32.5518 16.9538 32.1867 16.994Z" fill="white"/>
<circle cx="2" cy="24" r="2" fill="#100D40"/>
</svg>
