<svg width="48" height="48" viewBox="0 0 48 48" fill="none" xmlns="http://www.w3.org/2000/svg">
<path d="M48 24C48 30.5761 45.3552 36.5339 41.0223 40.8618C38.2087 43.7283 34.6073 45.8642 30.612 47.0445C28.4736 47.6627 26.279 48 23.9719 48C21.8898 48 19.9203 47.719 18.007 47.2693C14.4056 46.3138 11.0856 44.5714 8.32825 42.2108C3.2075 37.8267 0 31.3068 0 24.0562C0 10.7354 10.748 0 24.0281 0C37.3083 0 48 10.7354 48 24Z" fill="#F2F2F2"/>
<path fill-rule="evenodd" clip-rule="evenodd" d="M24.0003 27.6323C26.255 27.6323 28.2935 26.6191 29.7561 24.9863C30.1552 25.1913 30.6078 25.307 31.0875 25.307C32.6961 25.307 34.0002 24.0058 34.0002 22.4006C34.0002 21.4903 33.5808 20.6777 32.9242 20.1448C33.2358 19.6821 33.4177 19.1251 33.4177 18.5257C33.4177 17.3005 32.658 16.2524 31.5829 15.8248C30.4632 12.4281 27.4909 10 24.0003 10C20.359 10 17.2818 12.6421 16.2831 16.2696C15.2798 16.7286 14.5829 17.7396 14.5829 18.913C14.5829 19.5124 14.7647 20.0693 15.0763 20.532C14.4195 21.0649 13.9999 21.8777 13.9999 22.7882C13.9999 24.3934 15.3039 25.6946 16.9126 25.6946C17.4895 25.6946 18.0272 25.5273 18.4797 25.2385C19.9218 26.7228 21.864 27.6323 24.0003 27.6323Z" fill="#FFBC42"/>
<rect width="3.29868" height="6.98039" rx="1.64934" transform="matrix(-0.818158 -0.574993 0.57665 -0.816992 18.699 29.5454)" fill="#FFCEBF"/>
<rect width="3.29868" height="6.98039" rx="1.64934" transform="matrix(0.818158 -0.574993 -0.57665 -0.816992 30.0256 29.7573)" fill="#FFCEBF"/>
<rect width="3.30103" height="6.97542" rx="1.65051" transform="matrix(-0.999525 -0.0308091 0.0309418 -0.999521 23.5131 37.1577)" fill="#FFCEBF"/>
<rect width="3.30103" height="6.97542" rx="1.65051" transform="matrix(-0.999525 -0.0308091 0.0309418 -0.999521 28.5624 37.1577)" fill="#FFCEBF"/>
<rect x="22.3691" y="18.8423" width="3.93829" height="7.36842" rx="1.96914" fill="#FFA78F"/>
<path d="M19.9243 23.8447C20.1785 22.9995 20.9568 22.4209 21.8395 22.4209H26.0886C26.9539 22.4209 27.7211 22.9774 27.9898 23.7999L30.3737 31.0982C30.796 32.391 29.8326 33.7191 28.4725 33.7191H19.6437C18.3034 33.7191 17.3424 32.4265 17.7285 31.1429L19.9243 23.8447Z" fill="#100D40"/>
<rect x="22.3695" y="18" width="3.93829" height="7.36842" rx="1.96914" fill="#FFA78F"/>
<rect x="22.8612" y="18" width="3.446" height="7.36842" rx="1.723" fill="#FFAE98"/>
<path d="M19.489 16.7972C21.1496 17.0203 23.5415 15.9608 24.4311 15.4032C25.1889 15.8989 27.1987 16.7229 29.1755 16.7972C29.5379 18.2222 28.805 22.1875 25.8149 22.1875C25.2219 22.2804 23.9699 22.2804 23.1462 22.2804C19.667 22.2804 19.1925 18.594 19.489 16.7972Z" fill="#FFCEBF"/>
<ellipse cx="22.6149" cy="18.5966" rx="0.738429" ry="0.736842" fill="#100D40"/>
<ellipse cx="26.0607" cy="18.5966" rx="0.738429" ry="0.736842" fill="#100D40"/>
</svg>
