<svg width="48" height="48" viewBox="0 0 48 48" fill="none" xmlns="http://www.w3.org/2000/svg">
<path d="M48 24C48 30.5761 45.3552 36.5339 41.0223 40.8618C38.2087 43.7283 34.6073 45.8642 30.612 47.0445C28.4736 47.6627 26.279 48 23.9719 48C21.8898 48 19.9203 47.719 18.007 47.2693C14.4056 46.3138 11.0856 44.5714 8.32825 42.2108C3.2075 37.8267 0 31.3068 0 24.0562C0 10.7354 10.748 0 24.0281 0C37.3083 0 48 10.7354 48 24Z" fill="#F2F2F2"/>
<g clip-path="url(#clip0_2_566)">
<path d="M35.275 26.9C35.275 29.3895 33.2729 31.4 30.8125 31.4C28.3521 31.4 26.35 29.3895 26.35 26.9C26.35 24.4106 28.3521 22.4 30.8125 22.4C33.2729 22.4 35.275 24.4106 35.275 26.9Z" fill="white" stroke="#100D40" stroke-width="1.2"/>
<path d="M19.525 26.9C19.525 29.3895 17.5229 31.4 15.0625 31.4C12.6021 31.4 10.6 29.3895 10.6 26.9C10.6 24.4106 12.6021 22.4 15.0625 22.4C17.5229 22.4 19.525 24.4106 19.525 26.9Z" fill="white" stroke="#100D40" stroke-width="1.2"/>
<path d="M21.951 27.2029H13.991L19.7901 18.2498H28.9959L23.8693 26.1529L23.5275 25.9318C23.2298 25.7439 22.844 25.7107 22.5353 25.8655C22.1714 26.0313 21.9399 26.4071 21.9399 26.805V27.2029H21.951ZM15.5124 26.3739H21.1682C21.3005 25.8213 21.6643 25.346 22.1935 25.1028C22.6345 24.8928 23.1637 24.8707 23.6157 25.0475L27.4744 19.0898H20.2421L15.5124 26.3739Z" fill="#100D40"/>
<path d="M22.9764 28.6508C22.7448 28.6508 22.5574 28.4629 22.5574 28.2308C22.5574 27.9986 22.7448 27.8107 22.9764 27.8107C23.5386 27.8107 24.0017 27.3465 24.0017 26.7828C24.0017 26.4291 23.8253 26.1085 23.5386 25.9206C23.241 25.7327 22.8551 25.6995 22.5464 25.8543C22.1826 26.0201 21.9511 26.3959 21.9511 26.7938C21.9511 27.0259 21.7636 27.2138 21.5321 27.2138C21.3006 27.2138 21.1132 27.0259 21.1132 26.7938C21.1132 26.0754 21.5321 25.4122 22.1826 25.1027C22.7559 24.8374 23.4504 24.8816 23.9796 25.2353C24.5088 25.578 24.8286 26.1638 24.8286 26.7938C24.8286 27.8107 24.0017 28.6508 22.9764 28.6508Z" fill="#100D40"/>
<path d="M23.5573 26C23.3884 26 23.2195 25.9106 23.1471 25.7543L18.0447 15.6019C17.9361 15.3897 18.0326 15.144 18.2498 15.0435C18.4789 14.9429 18.7323 15.0211 18.8529 15.2333V15.2445L23.9553 25.4081C24.0639 25.6203 23.9674 25.866 23.7382 25.9665C23.6779 25.9888 23.6176 26 23.5573 26Z" fill="#100D40"/>
<path d="M31.807 27.2028C31.6527 27.2028 31.5094 27.1143 31.4322 26.9706L25.7433 15.5968C25.6441 15.3978 25.7213 15.1436 25.9308 15.0441C26.1402 14.9446 26.3828 15.022 26.482 15.232L32.1709 26.6059C32.2701 26.8048 32.1929 27.0591 31.9834 27.1585C31.9283 27.1917 31.8622 27.2028 31.807 27.2028Z" fill="#100D40"/>
<path d="M28.0918 17.7523C27.8602 17.7523 27.6728 17.5644 27.6728 17.3323C27.6728 17.1002 27.8602 16.9123 28.0918 16.9123C28.3894 16.9123 28.632 16.6691 28.632 16.3707C28.632 16.0722 28.3894 15.8291 28.0918 15.8291H24.3323C24.1008 15.8291 23.9133 15.6411 23.9133 15.409C23.9133 15.1769 24.1008 15.0111 24.3323 15.0111H28.0918C28.8415 15.0111 29.4589 15.6301 29.4589 16.3817C29.4589 17.1333 28.8415 17.7523 28.0918 17.7523Z" fill="#100D40"/>
<path d="M20.3963 15.8401H16.6368C16.4053 15.8401 16.2179 15.6521 16.2179 15.42C16.2179 15.1879 16.4053 15 16.6368 15H20.3963C20.6279 15 20.8153 15.1879 20.8153 15.42C20.8153 15.6521 20.6279 15.8401 20.3963 15.8401Z" fill="#100D40"/>
</g>
<defs>
<clipPath id="clip0_2_566">
<rect width="27" height="17" fill="white" transform="translate(10 15)"/>
</clipPath>
</defs>
</svg>
