<svg width="48" height="48" viewBox="0 0 48 48" fill="none" xmlns="http://www.w3.org/2000/svg">
<path d="M0 23.9156C0 30.9496 3.04225 37.3083 7.88732 41.6975C8.67606 42.4291 9.46479 43.0481 10.3662 43.6671C10.8169 44.0047 11.3239 44.286 11.831 44.6237C12 44.7362 12.2254 44.8488 12.3944 44.9613C12.6761 45.1301 12.9577 45.2427 13.2394 45.4115C13.8592 45.7491 14.5352 46.0305 15.2113 46.3118C15.8873 46.5932 16.5634 46.8183 17.2394 46.9871C17.9718 47.2122 18.7042 47.381 19.493 47.5498C20.9577 47.8312 22.4789 48 24.0563 48C27.5493 48 30.8169 47.2685 33.8028 45.9179C33.9155 45.8617 34.0845 45.8054 34.1972 45.7491C34.3099 45.6928 34.4225 45.6366 34.5352 45.5803C35.0986 45.2989 35.662 45.0176 36.2254 44.68C36.4507 44.5674 36.6761 44.4549 36.8451 44.286C38.3662 43.3294 39.7183 42.204 40.9577 40.966L41.2394 40.6846C41.6338 40.2345 42.0282 39.8406 42.4225 39.3904C42.4789 39.2778 42.5915 39.1653 42.6479 39.109C43.0986 38.5463 43.5493 37.9273 43.9437 37.3083C46.4789 33.4818 48 28.9238 48 24.0281C48 10.7479 37.2394 0 23.9437 0C10.6479 0 0 10.6354 0 23.9156Z" fill="#BCC3FF"/>
<path d="M30.9288 22.8464C30.9288 22.8464 22.6471 26.3353 16.3936 23.5217C16.3936 23.5217 15.4922 12.4361 18.2528 10.4666C18.2528 10.4666 18.5908 7.25909 24.788 7.76553C30.9852 8.27198 33.1824 16.0938 30.9288 22.8464Z" fill="#4E2722"/>
<path d="M11.2109 33.8194C11.6616 31.8499 12.4503 30.2743 12.7884 29.6553C12.9011 29.4864 12.9574 29.3739 12.9574 29.3739L13.7461 30.2743L18.8165 35.7889L18.5912 47.3247C18.1405 47.2121 17.6334 47.0996 17.1827 46.987C16.5067 46.7619 15.7743 46.5369 15.1546 46.3118C14.4785 46.0304 13.8025 45.749 13.1827 45.4114C12.9011 45.2989 12.6194 45.1301 12.3377 44.9612C12.1687 44.8487 11.9433 44.7362 11.7743 44.6236C11.3236 44.3985 10.9292 44.1172 10.4785 43.8358C10.7602 39.0527 10.9856 34.8323 11.2109 33.8194Z" fill="#EB5D4A"/>
<path d="M12.9571 29.3739V29.7679L13.0698 37.1395L13.1825 44.7925V45.2426V45.3552C13.8022 45.6928 14.4782 45.9742 15.1543 46.2555C15.8303 46.5369 16.5064 46.762 17.1825 46.9308C17.9148 47.1559 18.6472 47.3247 19.436 47.4935C20.9008 47.7749 22.4219 47.9437 23.9994 47.9437C27.4923 47.9437 30.7599 47.2122 33.7458 45.8616C33.8585 45.8054 34.0275 45.7491 34.1402 45.6928C34.2529 45.6366 34.3655 45.5803 34.4782 45.524C35.0416 45.2426 35.605 44.9613 36.1684 44.6237L36.2247 43.5545L36.4501 38.4337V37.9836V37.7585L36.5627 35.2825V34.8323L36.8444 28.9238C36.6754 28.8112 35.1543 27.5732 32.7317 26.5041C31.436 25.9414 29.9712 25.3786 28.281 25.0973H28.2247C28.112 25.0973 27.9994 25.041 27.8303 25.041C27.6613 24.9847 27.436 24.9847 27.267 24.9285C26.5346 24.8159 25.7458 24.8159 24.9571 24.8159C24.7317 24.8159 24.5064 24.8159 24.281 24.8722C23.4923 24.9285 22.7599 24.9847 22.0839 25.1535C22.0275 25.1535 21.9712 25.1536 21.9148 25.2098C21.7458 25.2098 21.6332 25.2661 21.4641 25.2661C21.3515 25.3224 21.1825 25.3224 21.0134 25.3786C19.3796 25.7725 17.9712 26.3353 16.7317 26.9543C16.5064 27.0668 16.3374 27.1793 16.112 27.2356C16.0557 27.2356 16.0557 27.2919 15.9994 27.2919C14.1965 28.3048 13.0698 29.2614 12.7881 29.4865C13.0134 29.3177 12.9571 29.3739 12.9571 29.3739Z" fill="#FF7867"/>
<path d="M30.9857 33.7632L36.2814 44.1172V44.5674C35.7181 44.905 35.1547 45.1864 34.5913 45.4678C34.4786 45.524 34.366 45.5803 34.2533 45.6366C34.1406 45.6928 33.9716 45.7491 33.8589 45.8054C32.4505 46.4244 30.9293 46.9308 29.4082 47.2685L30.9857 33.7632Z" fill="#EB5D4A"/>
<path d="M19.7744 25.5474C20.2251 25.3786 20.6758 25.2661 21.1829 25.1535C21.2955 25.0973 21.4646 25.0973 21.6336 25.041C21.7462 24.9847 21.9153 24.9847 22.0843 24.9847C22.1406 24.9847 22.197 24.9847 22.2533 24.9285C22.9857 24.8159 23.7181 24.7034 24.4505 24.6471C24.6758 24.6471 24.9012 24.6471 25.1265 24.5908C25.9153 24.5908 26.704 24.6471 27.4364 24.7034C27.6054 24.7034 27.8308 24.7596 27.9998 24.8159C28.1124 24.8159 28.2815 24.8722 28.3941 24.8722H28.4505C28.8448 24.9285 29.2955 25.041 29.6899 25.1535C29.2955 27.0668 28.1688 30.3868 24.6758 30.6119C21.2392 30.8933 19.8871 28.0234 19.7744 25.5474Z" fill="white"/>
<path d="M30.1966 33.1442C30.253 32.9754 30.253 32.8065 30.3093 32.6377C30.6473 31.3998 31.2107 30.2743 32.0558 29.5428C32.1685 29.4302 32.2811 29.374 32.3375 29.2614C32.7882 28.9238 33.3516 28.6424 33.9713 28.5299C33.9713 28.5299 36.7318 27.517 38.591 30.3869C39.098 31.1184 39.4924 32.1313 39.8304 33.4255C40.1121 34.7761 40.7318 37.871 41.2389 40.6846L41.0135 40.9097C39.7741 42.1477 38.3656 43.2731 36.9008 44.2298C36.6755 44.3423 36.5065 44.5111 36.2811 44.6237C35.7177 44.9613 35.1544 45.2427 34.591 45.524C34.4783 45.5803 34.3656 45.6366 34.253 45.6928C34.1403 45.7491 33.9713 45.8054 33.8586 45.8616C33.2952 46.0867 32.7318 46.3118 32.1121 46.5369C31.8304 45.0738 31.4361 43.3294 31.4361 43.1606C31.0417 41.585 30.7037 40.0656 30.4783 38.8839C30.3656 38.3775 30.253 37.9273 30.1966 37.5334C29.9149 36.1829 29.9149 34.6073 30.1966 33.1442Z" fill="#FF7867"/>
<path d="M19.1544 11.6483C19.1544 11.6483 15.7178 21.5522 21.915 22.0024L21.577 25.9414C21.577 25.9414 22.1967 28.136 24.9009 27.9672C27.6051 27.7984 27.9995 24.9285 27.9995 24.9285L27.2108 18.0633L25.6896 15.6999L25.2389 13.6178C25.1826 13.6178 21.408 14.5745 19.1544 11.6483Z" fill="#E89A83"/>
<path d="M29.5799 16.4367C29.7181 15.3578 28.9545 14.3712 27.8743 14.2332C26.7941 14.0951 25.8064 14.8579 25.6682 15.9368C25.53 17.0157 26.2936 18.0023 27.3738 18.1403C28.454 18.2783 29.4417 17.5156 29.5799 16.4367Z" fill="#E89A83"/>
<path d="M21.9154 22.0023C21.9154 22.0023 23.9999 22.4525 25.352 21.2145C25.352 21.2145 24.9577 23.4091 21.8027 23.5216L21.9154 22.0023Z" fill="#D6735C"/>
</svg>
